<?xml version="1.0" encoding="UTF-8"?><svg xmlns="http://www.w3.org/2000/svg" width="857" height="334" viewBox="0 0 857 334">
  
  
  
  
  
  
  
  
  
  
  
  
  
  
  
  
  
  
  
  
  
  
  
  
  
  
  
<g data-color-group="#09576e" id="deep-cyan"><path id="14" d="M 274.500,240.607 C 276.413,241.176 263.729,241.581 239.500,241.724 C 226.833,241.799 214.167,241.873 201.500,241.948 C 203.328,241.315 205.157,240.681 206.985,240.048 C 219.907,235.573 220.835,225.732 210.515,202.638 C 201.894,183.346 194.260,173.626 180.574,164.520 C 142.629,139.272 92.500,144.541 66.768,176.482 C 58.393,186.878 46.585,212.173 45.400,222.257 C 44.255,231.997 47.392,237.048 56.707,240.467 C 60.124,241.721 58.024,241.860 35.500,241.877 C 27.167,241.883 18.833,241.890 10.500,241.896 C 12.528,241.142 14.557,240.388 16.585,239.634 C 27.564,235.552 33.635,229.654 40.120,216.771 C 44.457,208.156 58.859,176.926 78.982,132.500 C 96.182,94.528 109.489,65.373 125.080,31.500 C 129.683,21.500 134.285,11.500 138.888,1.500 C 140.442,1.500 141.995,1.500 143.549,1.500 C 145.103,1.500 146.656,1.500 148.210,1.500 C 152.539,10.833 156.869,20.167 161.198,29.500 C 168.341,44.900 183.084,76.625 193.961,100 C 204.838,123.375 219.253,154.425 225.996,169 C 249.484,219.771 251.391,223.475 257.160,229.575 C 262.286,234.995 268.122,238.708 274.500,240.607 ZM 80.154,140.964 C 73.521,155.519 68.267,167.600 68.479,167.812 C 68.691,168.024 71.932,165.756 75.682,162.772 C 86.707,154 95.385,149.815 110.500,145.981 C 132.405,140.426 158.460,143.513 182.631,154.528 C 186.684,156.375 190,157.651 190,157.363 C 190,156.730 174.489,122.868 152.500,75.500 C 133.060,33.622 131.790,31 130.944,31 C 130.582,31 128.695,34.487 126.749,38.750 C 122.760,47.490 98.317,101.109 80.154,140.964 Z" fill="#09576E" stroke="none"/><path id="14" d="M 824.932,241.229 C 827.445,241.355 820.050,241.583 808.500,241.736 C 788.885,241.996 787.282,241.881 784.192,239.987 C 778.732,236.640 777.048,231.430 777.022,217.809 C 777.010,211.379 776.624,205.886 776.165,205.602 C 775.706,205.318 774.541,206.754 773.576,208.793 C 768.713,219.072 758.265,228.806 744.821,235.586 C 714.882,250.684 664.448,246.085 649.894,226.930 C 644.076,219.272 642.595,215.048 642.553,206 C 642.519,198.541 642.864,196.833 645.375,192.050 C 653.188,177.168 668.660,168.568 706.500,158.074 C 729.781,151.617 742.722,147.144 752.319,142.236 C 761.487,137.547 771.048,129.743 773.550,124.904 C 775.528,121.079 775.370,115.388 773.103,108.800 C 766.239,88.850 747.175,75.979 724.540,76.012 C 710.740,76.032 701.626,79.354 693.128,87.460 C 684.072,96.098 679,108.573 679,122.210 C 679,128.388 678.815,129 676.950,129 C 672.377,129 664.173,123.087 661.411,117.800 C 659.408,113.967 659.663,108.581 662.071,103.861 C 664.920,98.278 675.368,88.270 683.089,83.731 C 719.816,62.139 772.324,69.446 791.812,98.861 C 801.664,113.731 801.999,116.245 802.006,175.338 C 802.010,205.860 802.395,224.883 803.060,227.277 C 805.380,235.633 813.234,240.643 824.932,241.229 ZM 668.391,196.286 C 665.193,206.071 669.836,221.535 677.887,227.911 C 695.225,241.643 722.716,242.542 746.500,230.157 C 756.162,225.126 767.001,214.359 770.994,205.827 C 776.206,194.690 776.964,188.564 776.983,157.417 C 776.993,141.971 776.744,129.077 776.431,128.764 C 776.118,128.451 773.981,130.235 771.682,132.729 C 762.562,142.623 749.115,149.633 720.199,159.569 C 709.915,163.103 697.882,167.804 693.461,170.016 C 680.077,176.712 672.032,185.142 668.391,196.286 Z" fill="#09576E" stroke="none"/><path id="14" d="M 480.010,240.740 C 484.926,241.316 481.575,241.566 466.195,241.771 C 442.807,242.083 440.867,241.616 436.914,234.714 C 434.821,231.060 434.434,228.839 434,218 C 433.833,213.833 433.667,209.667 433.500,205.500 C 432.059,207.741 430.618,209.983 429.177,212.224 C 419.750,226.887 404.187,237.602 386,241.953 C 375.433,244.481 355.495,244.739 344.606,242.490 C 318.212,237.038 299.140,220.216 292.383,196.427 C 290.940,191.346 290.614,182.911 290.100,137.321 C 289.518,85.688 289.440,84.060 287.439,81.321 C 286.305,79.769 283.953,77.825 282.211,77 C 280.469,76.175 279.034,75.162 279.022,74.750 C 279.010,74.338 287.305,74 297.456,74 C 303.608,74 309.760,74 315.912,74 C 316.015,93.917 316.118,113.833 316.221,133.750 C 316.529,193.294 316.539,193.524 318.866,200.500 C 323.549,214.538 333.010,225.947 344.975,231.987 C 363.914,241.548 387.825,240.477 406.490,229.232 C 419.315,221.506 429.540,207.381 432.533,193.257 C 434.332,184.768 434.663,95.190 432.925,87.087 C 432.133,83.392 430.941,81.278 428.390,79.038 C 426.487,77.367 424.271,76 423.465,76 C 422.659,76 422,75.550 422,75 C 422,74.369 428.833,74 440.500,74 C 446.667,74 452.833,74 459,74 C 459,98.288 459,122.576 459,146.864 C 459,220.987 459.315,228.125 462.811,233 C 465.427,236.648 472.590,239.871 480.010,240.740 ZM 341.352,234.419 C 340.484,234.752 339.994,235.935 340.180,237.246 C 340.431,239.011 341.149,239.500 343.486,239.500 C 345.489,239.500 346.580,238.946 346.797,237.817 C 347.175,235.856 343.531,233.583 341.352,234.419 Z" fill="#09576E" stroke="none"/><path id="14" d="M 630.865,73.545 C 632.653,74.078 634.442,74.613 636.230,75.146 C 636.089,77.089 635.949,79.032 635.808,80.975 C 635.487,85.410 634.713,87.687 632.571,90.495 C 629.401,94.652 629.763,94.655 618,90.375 C 611.779,88.111 608.795,87.636 600.500,87.587 C 584.362,87.491 572.396,92.620 561.239,104.415 C 553.760,112.322 550.083,118.467 546.468,129.094 C 542.452,140.902 541.846,149.671 542.185,191.036 C 542.459,224.483 542.715,229.891 544.148,232.502 C 546.400,236.605 549.165,238.939 553.684,240.551 C 557.063,241.756 554.289,241.907 529.500,241.870 C 514.100,241.847 502.627,241.485 504.006,241.066 C 509.401,239.425 512.810,236.928 514.615,233.294 C 516.409,229.683 516.500,226.025 516.500,157.500 C 516.500,88.142 516.429,85.383 514.570,82.311 C 513.509,80.557 511.146,78.316 509.320,77.333 C 507.494,76.350 506,75.198 506,74.773 C 506,74.348 514.100,74 524,74 C 530,74 536,74 542,74 C 542.051,79.417 542.102,84.833 542.153,90.250 C 542.237,99.188 542.188,110.402 542.045,115.171 C 541.902,119.940 542.076,124.315 542.432,124.891 C 542.788,125.467 545.339,121.508 548.099,116.093 C 557.065,98.504 569.397,86.064 585.497,78.374 C 601.064,70.938 616.586,69.286 630.865,73.545 Z" fill="#09576E" stroke="none"/></g><g data-color-group="#fefefe" id="white"><path id="16" d="M 668.391,196.286 C 672.032,185.142 680.077,176.712 693.461,170.016 C 697.882,167.804 709.915,163.103 720.199,159.569 C 749.115,149.633 762.562,142.623 771.682,132.729 C 773.981,130.235 776.118,128.451 776.431,128.764 C 776.744,129.077 776.993,141.971 776.983,157.417 C 776.964,188.564 776.206,194.690 770.994,205.827 C 767.001,214.359 756.162,225.126 746.500,230.157 C 722.716,242.542 695.225,241.643 677.887,227.911 C 669.836,221.535 665.193,206.071 668.391,196.286 Z" fill="#FEFEFE" stroke="none" style="display:none"/><path id="16" d="M 80.154,140.964 C 98.317,101.109 122.760,47.490 126.749,38.750 C 128.695,34.487 130.582,31 130.944,31 C 131.790,31 133.060,33.622 152.500,75.500 C 174.489,122.868 190,156.730 190,157.363 C 190,157.651 186.684,156.375 182.631,154.528 C 158.460,143.513 132.405,140.426 110.500,145.981 C 95.385,149.815 86.707,154 75.682,162.772 C 71.932,165.756 68.691,168.024 68.479,167.812 C 68.267,167.600 73.521,155.519 80.154,140.964 Z" fill="#FEFEFE" stroke="none" style="display:none"/><path id="16" d="M 541.284,304 C 543.780,308.898 542.806,313.658 538.472,317.750 C 534.090,321.887 529.489,322.124 525.106,318.436 C 514.863,309.817 523.971,292.911 535.756,298.670 C 537.994,299.764 540.218,301.908 541.284,304 Z" fill="#FEFEFE" stroke="none" style="display:none"/><path id="16" d="M 344.927,300.635 C 346.067,302.084 347,304.109 347,305.135 C 347,306.817 346.116,307 338,307 C 327.861,307 327.154,306.347 331.589,301.077 C 333.747,298.512 334.899,298 338.516,298 C 342.012,298 343.257,298.512 344.927,300.635 Z" fill="#FEFEFE" stroke="none" style="display:none"/><path id="16" d="M 670.686,300.174 C 671.959,301.370 673,303.395 673,304.674 C 673,306.936 672.753,307 664,307 C 653.861,307 653.155,306.347 657.589,301.077 C 659.704,298.563 660.927,298 664.274,298 C 667.104,298 669.087,298.672 670.686,300.174 Z" fill="#FEFEFE" stroke="none" style="display:none"/><path id="16" d="M 211.845,302.500 C 214.120,306.659 213.482,307 203.433,307 C 193.976,307 193.874,306.974 194.548,304.750 C 195.865,300.409 199.052,298 203.483,298 C 207.830,298 210.032,299.185 211.845,302.500 Z" fill="#FEFEFE" stroke="none" style="display:none"/></g><g data-color-group="#4d4f75" id="muted-blue"><path id="29" d="M 651.407,302.450 C 653.095,298.575 658.070,294.363 661.973,293.506 C 666.306,292.554 671.421,294.576 675.003,298.656 C 677.586,301.598 678.055,302.886 677.803,306.345 C 677.702,307.730 677.601,309.115 677.500,310.500 C 673.750,310.594 670,310.689 666.250,310.783 C 660.062,310.939 655,311.480 655,311.986 C 655,314.527 657.630,318.071 660.540,319.452 C 664.826,321.486 666.781,321.406 671.492,319.004 C 676.638,316.380 678.534,317.921 674.779,321.676 C 670.971,325.484 662.576,326.137 657.529,323.018 C 651.007,318.987 648.245,309.708 651.407,302.450 ZM 670.686,300.174 C 669.087,298.672 667.104,298 664.274,298 C 660.927,298 659.704,298.563 657.589,301.077 C 653.155,306.347 653.861,307 664,307 C 672.753,307 673,306.936 673,304.674 C 673,303.395 671.959,301.370 670.686,300.174 Z" fill="#4D4F75" stroke="none"/><path id="29" d="M 325.891,301.411 C 328.440,297.230 332.511,294.182 336.558,293.423 C 343.799,292.065 352.408,299.717 351.797,306.968 C 351.698,308.145 351.599,309.323 351.500,310.500 C 347.750,310.594 344,310.689 340.250,310.783 C 333.477,310.953 329,311.470 329,312.082 C 329,314.615 332.181,318.832 334.959,319.983 C 338.489,321.445 343.554,320.713 346.147,318.367 C 348.091,316.608 351.414,317.246 350.756,319.251 C 350.530,319.938 348.851,321.513 347.025,322.750 C 340.339,327.280 330.355,324.910 325.995,317.759 C 323.388,313.483 323.337,305.599 325.891,301.411 ZM 344.927,300.635 C 343.257,298.512 342.012,298 338.516,298 C 334.899,298 333.747,298.512 331.589,301.077 C 327.154,306.347 327.861,307 338,307 C 346.116,307 347,306.817 347,305.135 C 347,304.109 346.067,302.084 344.927,300.635 Z" fill="#4D4F75" stroke="none"/><path id="29" d="M 517.752,302.020 C 523.002,291.571 538.833,291.118 545.005,301.241 C 550.741,310.648 544.040,323.452 532.712,324.729 C 520.932,326.057 512.277,312.918 517.752,302.020 ZM 541.284,304 C 540.218,301.908 537.994,299.764 535.756,298.670 C 523.971,292.911 514.863,309.817 525.106,318.436 C 529.489,322.124 534.090,321.887 538.472,317.750 C 542.806,313.658 543.780,308.898 541.284,304 Z" fill="#4D4F75" stroke="none"/><path id="29" d="M 191.186,302.059 C 194.286,296.111 198.041,293.500 203.500,293.500 C 210.610,293.500 216.815,299.365 217.254,306.500 C 217.336,307.833 217.418,309.167 217.500,310.500 C 213.583,310.594 209.667,310.688 205.750,310.782 C 198.289,310.961 194,311.451 194,312.127 C 194,314.563 197.602,319.014 200.348,319.971 C 204.504,321.420 206.040,321.274 210.492,319.004 C 212.902,317.775 214.765,317.365 215.337,317.937 C 218.017,320.617 210.960,325 203.967,325 C 192.752,325 185.766,312.461 191.186,302.059 ZM 211.845,302.500 C 210.032,299.185 207.830,298 203.483,298 C 199.052,298 195.865,300.409 194.548,304.750 C 193.874,306.974 193.976,307 203.433,307 C 213.482,307 214.120,306.659 211.845,302.500 Z" fill="#4D4F75" stroke="none"/><path id="29" d="M 467.465,296.637 C 471.622,284.975 486.025,279.478 497.093,285.330 C 501.654,287.742 503.264,290.578 500.643,291.584 C 499.815,291.902 497.771,291.150 496.100,289.915 C 491.489,286.506 483.478,286.151 479.092,289.161 C 471.644,294.273 469.221,302.054 472.447,310.501 C 474.432,315.698 477.658,318.562 483.214,320.058 C 488.003,321.347 491.811,320.617 496.343,317.542 C 498.564,316.035 500.231,315.527 501.126,316.086 C 504.944,318.468 494.572,325.014 487.038,324.978 C 478.129,324.935 469.702,318.625 467.141,310.078 C 465.667,305.157 465.757,301.429 467.465,296.637 ZM 468.858,300.001 C 467.847,299.999 466.937,304.673 467.608,306.421 C 468.760,309.424 470.047,307.985 469.774,304.001 C 469.623,301.802 469.211,300.002 468.858,300.001 Z" fill="#4D4F75" stroke="none"/><path id="29" d="M 693.034,305.159 C 694.759,297.479 704.149,291.886 711.841,293.957 C 716.612,295.242 719.898,298.502 718.167,300.233 C 717.252,301.148 716.319,301.029 714.086,299.710 C 709.617,297.070 704.588,297.503 700.842,300.850 C 698.102,303.298 697.641,304.396 697.576,308.642 C 697.477,315.083 699.749,318.545 705.133,320.158 C 708.874,321.279 709.665,321.184 713.329,319.177 C 716.796,317.278 717.587,317.158 718.778,318.349 C 719.969,319.540 719.700,320.078 716.927,322.052 C 712.085,325.500 704.492,325.853 700.054,322.836 C 694.233,318.879 691.499,311.994 693.034,305.159 Z" fill="#4D4F75" stroke="none"/><path id="29" d="M 366.982,318.511 C 367.522,318.177 370.195,318.697 372.923,319.666 C 378.419,321.618 382.423,320.927 384.396,317.687 C 385.845,315.308 382.437,312.390 376.447,310.882 C 367.995,308.754 365.004,301.539 370.357,296.189 C 372.572,293.975 373.911,293.513 377.926,293.571 C 383.072,293.646 388.437,296.249 387.702,298.314 C 387.470,298.966 386.204,299.310 384.890,299.078 C 379.007,298.040 373.723,298.520 372.660,300.191 C 371.070,302.690 373.896,305.286 380.459,307.355 C 386.595,309.289 389,311.903 389,316.634 C 389,323.956 378.640,327.408 369.960,322.980 C 366.003,320.961 365.133,319.654 366.982,318.511 Z" fill="#4D4F75" stroke="none"/></g><g data-color-group="#4a4c72" id="muted-blue-2"><path id="21" d="M 121.025,284 C 122.219,284 123.380,284.923 123.855,286.250 C 124.298,287.487 126.823,294.717 129.466,302.315 C 132.109,309.913 134.607,315.763 135.018,315.315 C 135.429,314.867 138.014,307.750 140.764,299.500 C 147.653,278.833 148.082,278.847 154.922,299.949 C 157.784,308.777 160.453,316 160.854,316 C 161.255,316 164.040,308.803 167.042,300.006 C 171.920,285.711 172.739,284.011 174.750,284.006 C 175.988,284.003 177,284.171 177,284.380 C 177,284.723 168.277,309.203 164.376,319.806 C 163.121,323.216 162.360,324.048 160.713,323.806 C 158.983,323.551 157.787,320.940 153.591,308.250 C 150.818,299.862 148.255,293 147.896,293 C 147.537,293 144.827,299.975 141.872,308.500 C 134.511,329.736 134.525,329.740 125.735,304.740 C 122.014,294.158 118.977,285.163 118.985,284.750 C 118.993,284.337 119.911,284 121.025,284 Z" fill="#4A4C72" stroke="none"/><path id="21" d="M 610,294 C 611.333,294 612,294.667 612,296 C 612,297.100 612.266,298 612.592,298 C 612.918,298 614.329,297.100 615.727,296 C 619.277,293.208 626.828,293.259 629.873,296.096 C 633.308,299.297 634,302.225 634,313.565 C 634,323.333 633.872,324 632,324 C 630.129,324 630,323.333 630,313.635 C 630,304.763 629.710,302.902 627.988,300.712 C 623.800,295.388 615.325,296.759 613.108,303.119 C 612.498,304.868 612,310.281 612,315.149 C 612,323.333 611.849,324 610,324 C 608.089,324 608,323.333 608,309 C 608,294.667 608.089,294 610,294 Z" fill="#4A4C72" stroke="none"/><path id="21" d="M 236.250,282.180 C 237,282.287 237.750,282.393 238.500,282.500 C 238.427,289.333 238.354,296.167 238.281,303 C 238.070,322.747 237.987,323.512 236.031,323.820 C 234.044,324.133 234,323.684 234,303 C 234,295.954 234,288.907 234,281.861 C 234.750,281.968 235.500,282.073 236.250,282.180 Z" fill="#4A4C72" stroke="none"/></g><g data-color-group="#4c4e74" id="muted-blue-3"><path id="7" d="M 306.563,300.378 C 307.405,302.314 307.937,307.395 307.961,313.750 C 307.997,323.189 307.848,324 306.088,324 C 304.344,324 304.147,323.047 303.838,313.102 C 303.564,304.277 303.153,301.821 301.676,300.192 C 297.673,295.775 290.204,296.772 287.453,302.091 C 286.480,303.972 286,308.055 286,314.450 C 286,323.333 285.860,324 284,324 C 282.089,324 282,323.333 282,309 C 282,295.942 282.207,294 283.594,294 C 284.470,294 285.422,294.900 285.710,296 C 285.998,297.100 286.447,298 286.709,298 C 286.971,298 288.329,297.100 289.727,296 C 292.863,293.533 299.617,293.342 302.880,295.628 C 304.159,296.524 305.816,298.661 306.563,300.378 Z" fill="#4C4E74" stroke="none"/><path id="7" d="M 589.020,300.388 C 589.489,301.550 589.902,307.337 589.937,313.250 C 589.996,323.190 589.856,324 588.089,324 C 586.345,324 586.148,323.047 585.839,313.102 C 585.565,304.277 585.153,301.821 583.676,300.192 C 579.673,295.775 572.204,296.772 569.453,302.091 C 568.480,303.972 568,308.055 568,314.450 C 568,323.333 567.860,324 566,324 C 564.089,324 564,323.333 564,309 C 564,295.942 564.207,294 565.594,294 C 566.470,294 567.422,294.900 567.710,296 C 567.998,297.100 568.447,298 568.709,298 C 568.971,298 570.329,297.100 571.727,296 C 576.929,291.908 586.583,294.357 589.020,300.388 Z" fill="#4C4E74" stroke="none"/></g><g data-color-group="#4f537b" id="muted-blue-4"><path id="25" d="M 406.250,318.468 C 414.811,321.136 416.867,321.318 419.440,319.632 C 424.096,316.581 422.738,314.406 414.138,311.142 C 406.898,308.394 405,306.499 405,302.019 C 405,296.591 408.679,293.478 414.984,293.571 C 420.073,293.646 425.431,296.260 424.704,298.314 C 424.473,298.966 423.433,299.364 422.392,299.198 C 413.582,297.793 411.375,297.843 410.019,299.477 C 407.905,302.025 409.779,304.123 416.740,307 C 424.652,310.270 426,311.536 426,315.699 C 426,321.105 421.528,325.001 415.327,324.996 C 409.939,324.992 404,322.057 404,319.398 C 404,318.165 404.550,317.938 406.250,318.468 Z" fill="#4F537B" stroke="none"/></g><g data-color-group="#464a71" id="muted-blue-5"><path id="20" d="M 733.646,294.688 C 734.024,294.310 735.159,294 736.167,294 C 737.677,294 738,293.195 738,289.427 C 738,285.612 738.290,284.908 739.750,285.185 C 741.022,285.426 741.583,286.661 741.805,289.706 C 741.907,291.102 742.008,292.499 742.110,293.895 C 743.675,293.996 745.240,294.096 746.805,294.197 C 750.177,294.414 751.500,294.923 751.500,296 C 751.500,297.080 750.170,297.586 746.750,297.805 C 745.167,297.907 743.583,298.008 742,298.110 C 742,301.551 742,304.991 742,308.432 C 742,319.950 742.777,321.553 747.991,320.788 C 750.340,320.443 751,320.723 751,322.065 C 751,324.070 746.870,325.397 743.665,324.422 C 738.532,322.860 738,321.451 738,309.415 C 738,298.607 737.910,298.126 735.828,297.820 C 733.573,297.488 732.453,295.881 733.646,294.688 Z" fill="#464A71" stroke="none"/><path id="20" d="M 258.647,282.687 C 259.025,282.309 259.934,282 260.667,282 C 261.736,282 262,286.179 262,303.073 C 262,322.604 261.872,324.122 260.250,323.810 C 258.664,323.505 258.475,321.600 258.230,303.424 C 258.081,292.396 258.269,283.065 258.647,282.687 Z" fill="#464A71" stroke="none"/><path id="20" d="M 468.858,300.001 C 469.211,300.002 469.623,301.802 469.774,304.001 C 470.047,307.985 468.760,309.424 467.608,306.421 C 466.937,304.673 467.847,299.999 468.858,300.001 Z" fill="#464A71" stroke="none"/></g><g data-color-group="#034e63" id="deep-cyan-2"><path id="19" d="M 341.352,234.419 C 343.531,233.583 347.175,235.856 346.797,237.817 C 346.580,238.946 345.489,239.500 343.486,239.500 C 341.149,239.500 340.431,239.011 340.180,237.246 C 339.994,235.935 340.484,234.752 341.352,234.419 Z" fill="#034E63" stroke="none"/></g></svg>