<?xml version="1.0" encoding="UTF-8"?>
<svg xmlns="http://www.w3.org/2000/svg" width="1254" height="1254" viewBox="0 0 1254 1254">
  <path id="10" d="M 226,870.163 C 238.675,866.398 244.840,859.799 254.520,839.634 C 260.854,826.440 311.623,715.459 322.057,692 C 324.136,687.325 331.245,671.800 337.854,657.500 C 341.860,648.833 345.865,640.167 349.871,631.500 C 351.428,631.500 352.984,631.500 354.541,631.500 C 356.098,631.500 357.653,631.500 359.210,631.500 C 363.541,640.833 367.871,650.167 372.202,659.500 C 379.347,674.900 394.092,706.625 404.967,730 C 415.842,753.375 430.256,784.425 436.998,799 C 460.744,850.335 462.377,853.495 468.407,859.817 C 473.425,865.078 475.910,866.633 486,870.826 C 487.793,871.571 477.749,871.875 450.500,871.900 C 437.833,871.912 425.167,871.923 412.500,871.935 C 414.328,871.304 416.157,870.672 417.985,870.041 C 430.906,865.581 431.836,855.733 421.515,832.638 C 412.878,813.310 405.262,803.628 391.486,794.462 C 375.797,784.023 358.675,778.809 340,778.784 C 321.745,778.760 307.323,782.883 293.626,792.044 C 280.332,800.936 273.051,810.520 263.517,831.677 C 252.622,855.854 253.639,865.279 267.707,870.477 C 271.113,871.735 268.947,871.859 246.500,871.689 C 223.880,871.518 221.928,871.372 226,870.163 ZM 291.154,770.964 C 284.521,785.519 279.267,797.600 279.479,797.812 C 279.691,798.024 282.932,795.756 286.682,792.772 C 297.707,784 306.385,779.815 321.500,775.981 C 343.405,770.426 369.460,773.513 393.631,784.528 C 397.684,786.375 401,787.651 401,787.363 C 401,786.730 385.489,752.868 363.500,705.500 C 344.060,663.622 342.790,661 341.944,661 C 341.582,661 339.695,664.487 337.749,668.750 C 333.760,677.490 309.317,731.109 291.154,770.964 Z" fill="#09576E" stroke="none" />
  <path id="10" d="M 853.871,828 C 858.624,813.643 871.530,803.099 894,795.216 C 898.675,793.576 909.250,790.362 917.500,788.074 C 958.124,776.807 974.063,769.179 983.132,756.659 C 986.688,751.750 986.893,746.470 983.844,738.288 C 980.988,730.621 977.720,725.572 972.030,720.029 C 957.533,705.909 933.573,701.922 913.713,710.326 C 908.188,712.664 898.752,722.125 895.672,728.416 C 891.969,735.979 890,744.239 890,752.210 C 890,758.388 889.815,759 887.950,759 C 885.207,759 880.145,756.370 876.661,753.136 C 867.741,744.855 869.231,735.602 881.410,723.651 C 914.048,691.624 979.810,694.445 1002.851,728.861 C 1007.844,736.319 1010.667,743.216 1011.941,751.066 C 1012.561,754.887 1012.990,776.996 1012.998,805.500 C 1013.006,835.885 1013.396,854.886 1014.060,857.277 C 1015.460,862.319 1020.251,867.596 1024.800,869.107 C 1026.835,869.783 1031.200,870.649 1034.500,871.031 C 1038.388,871.482 1033.109,871.773 1019.500,871.859 C 1000.068,871.982 998.253,871.842 995.192,869.976 C 989.733,866.648 988.048,861.437 988.022,847.809 C 988.010,841.379 987.648,835.900 987.218,835.634 C 986.788,835.368 985.128,837.647 983.531,840.698 C 977.449,852.314 962.059,864.326 946.693,869.451 C 935.221,873.277 927.518,874.335 911.500,874.281 C 899.513,874.241 894.893,873.804 888.500,872.109 C 866.244,866.208 854.363,854.520 853.434,837.610 C 853.219,833.699 853.416,829.375 853.871,828 ZM 879.391,826.286 C 876.193,836.071 880.836,851.535 888.887,857.911 C 906.225,871.643 933.716,872.542 957.500,860.157 C 967.162,855.126 978.001,844.359 981.994,835.827 C 987.206,824.690 987.964,818.564 987.983,787.417 C 987.993,771.971 987.744,759.077 987.431,758.764 C 987.118,758.451 984.981,760.235 982.682,762.729 C 973.562,772.622 960.115,779.633 931.199,789.569 C 920.915,793.103 908.882,797.804 904.461,800.016 C 891.077,806.712 883.032,815.142 879.391,826.286 Z" fill="#09576E" stroke="none" />
  <path id="10" d="M 508.456,704 C 514.608,704 520.760,704 526.912,704 C 527.015,723.917 527.118,743.833 527.221,763.750 C 527.529,823.294 527.539,823.524 529.866,830.500 C 536.044,849.020 549.201,861.453 568.080,866.612 C 578.250,869.391 593.442,868.933 603.490,865.546 C 624.470,858.473 639.415,842.690 643.533,823.257 C 645.332,814.768 645.663,725.190 643.925,717.087 C 643.133,713.392 641.942,711.278 639.391,709.038 C 637.488,707.367 635.271,706 634.465,706 C 633.659,706 633,705.550 633,705 C 633,704.369 639.833,704 651.500,704 C 657.667,704 663.833,704 670,704 C 670,728.288 670,752.576 670,776.864 C 670,850.987 670.315,858.125 673.811,863 C 676.360,866.555 683.433,869.782 691,870.842 C 696.332,871.589 693.843,871.776 677.151,871.877 C 653.762,872.019 651.827,871.544 647.914,864.714 C 645.821,861.060 645.434,858.839 645,848 C 644.833,843.833 644.667,839.667 644.500,835.500 C 643.059,837.741 641.618,839.983 640.177,842.224 C 630.750,856.887 615.187,867.602 597,871.953 C 586.433,874.481 566.495,874.739 555.606,872.490 C 529.212,867.038 510.140,850.216 503.383,826.427 C 501.940,821.346 501.614,812.911 501.100,767.321 C 500.518,715.688 500.440,714.060 498.439,711.321 C 497.305,709.769 494.953,707.825 493.211,707 C 491.469,706.175 490.034,705.162 490.022,704.750 C 490.010,704.338 498.305,704 508.456,704 Z" fill="#09576E" stroke="none" />
  <path id="12" d="M 879.391,826.286 C 883.032,815.142 891.077,806.712 904.461,800.016 C 908.882,797.804 920.915,793.103 931.199,789.569 C 960.115,779.633 973.562,772.622 982.682,762.729 C 984.981,760.235 987.118,758.451 987.431,758.764 C 987.744,759.077 987.993,771.971 987.983,787.417 C 987.964,818.564 987.206,824.690 981.994,835.827 C 978.001,844.359 967.162,855.126 957.500,860.157 C 933.716,872.542 906.225,871.643 888.887,857.911 C 880.836,851.535 876.193,836.071 879.391,826.286 Z" fill="#FEFEFE" stroke="none" />
  <path id="12" d="M 291.154,770.964 C 309.317,731.109 333.760,677.490 337.749,668.750 C 339.695,664.487 341.582,661 341.944,661 C 342.790,661 344.060,663.622 363.500,705.500 C 385.489,752.868 401,786.730 401,787.363 C 401,787.651 397.684,786.375 393.631,784.528 C 369.460,773.513 343.405,770.426 321.500,775.981 C 306.385,779.815 297.707,784 286.682,792.772 C 282.932,795.756 279.691,798.024 279.479,797.812 C 279.267,797.600 284.521,785.519 291.154,770.964 Z" fill="#FEFEFE" stroke="none" />
  <path id="12" d="M 562,565 C 599.124,589.412 609.924,596.774 609.951,597.108 C 609.978,597.442 605.838,599.628 600.750,601.966 C 583.033,610.108 563.746,613.347 546.500,611.073 C 537.407,609.874 520.479,604.799 513.042,601.042 C 511.695,600.361 510.347,599.681 509,599 C 507.445,598.083 505.890,597.167 504.335,596.250 C 472.930,577.738 449.483,553.369 435.374,524.573 C 428.978,511.518 428.959,511.565 440.443,512.319 C 468.960,514.192 493.743,523.510 538,549 C 542.333,551.667 546.667,554.333 551,557 C 549.266,560.154 539.229,564.381 529.345,566.119 C 518.553,568.017 519.612,569 532.446,569 C 540.673,569 546.996,568.389 553.146,567 C 556.097,566.333 559.049,565.667 562,565 Z" fill="#FEFEFE" stroke="none" />
  <path id="40" d="M 585,224 C 592.362,222.489 598.020,221.589 602.322,221.025 C 613.935,219.503 639.687,219.774 651.872,221.546 C 691.768,227.348 727.942,246.522 755.920,276.699 C 778.947,301.536 795.564,335.051 801.682,369 C 804.367,383.897 804.124,412.221 801.186,426.834 C 797.393,445.700 790.033,465.553 784.441,472.002 C 783.725,472.828 782.657,474.773 782.067,476.325 C 781.369,478.161 780.401,479.031 779.295,478.818 C 777.725,478.516 777.717,478.264 779.176,475.496 C 780.045,473.848 781.198,470.700 781.740,468.500 C 782.282,466.300 783.918,460.492 785.376,455.593 C 802.601,397.705 791.130,340.309 752.982,293.500 C 734.171,270.418 705.581,251.293 675.092,241.396 C 648.785,232.856 622.672,231.334 592.288,236.571 C 589.525,237.047 586.763,237.524 584,238 C 577.252,238 569.217,240.197 554.388,246.096 C 551.622,247.197 551.023,247.100 549.009,245.223 C 547.709,244.012 546.991,242.466 547.325,241.597 C 548.119,239.527 555.724,235.808 566.857,232.048 C 571.968,230.322 578.140,227.805 580.574,226.455 C 582.049,225.637 583.525,224.818 585,224 Z" fill="#B5A0D9" stroke="none" />
  <path id="12" d="M 700,557 C 700.583,556.555 701.167,556.111 701.750,555.666 C 704.519,553.555 725.751,540.775 734,536.254 C 751.145,526.857 774.319,517.988 790.556,514.609 C 800.493,512.541 816.664,510.759 818.939,511.481 C 820.751,512.056 820.786,512.354 819.470,516.085 C 815.373,527.698 803.754,546.155 792.769,558.500 C 760.538,594.723 717.006,615.570 682.674,611.224 C 677.628,610.585 669.338,608.924 655,605 C 652.667,603.853 650.333,602.706 648,601.559 C 644.150,599.667 641,597.739 641,597.274 C 641,596.809 651.800,589.358 689,565 C 691.250,565.541 693.500,566.083 695.750,566.624 C 703.701,568.536 736.481,569.770 734,568.063 C 733.175,567.495 731.067,567.023 729.315,567.015 C 723.285,566.986 712.365,564.099 699,559 C 699.333,558.333 699.667,557.667 700,557 Z" fill="#FEFEFE" stroke="none" />
  <path id="10" d="M 714.290,871.234 C 718.484,870.687 723.790,866.968 725.612,863.300 C 727.409,859.682 727.500,856.062 727.500,787.500 C 727.500,718.142 727.429,715.383 725.570,712.311 C 724.509,710.557 722.146,708.316 720.320,707.333 C 718.494,706.350 717,705.198 717,704.773 C 717,704.348 725.100,704 735,704 C 741,704 747,704 753,704 C 753.066,709.417 753.133,714.833 753.199,720.250 C 753.308,729.188 753.260,740.401 753.091,745.170 C 752.922,749.939 753.075,754.313 753.432,754.890 C 753.789,755.467 756.339,751.508 759.099,746.093 C 768.065,728.504 780.397,716.064 796.497,708.374 C 812.046,700.947 827.863,699.252 841.865,703.513 C 843.653,704.057 845.442,704.602 847.230,705.146 C 847.089,707.089 846.949,709.032 846.808,710.975 C 846.487,715.410 845.713,717.687 843.571,720.495 C 840.401,724.652 840.763,724.655 829,720.375 C 822.779,718.111 819.795,717.636 811.500,717.587 C 796.534,717.498 785.195,721.892 774.653,731.866 C 766.987,739.119 761.933,746.944 758.135,757.440 C 753.444,770.403 752.834,778.249 753.185,821.036 C 753.459,854.483 753.715,859.891 755.148,862.502 C 757.397,866.601 760.161,868.937 764.684,870.560 C 768.053,871.769 765.217,871.902 740.500,871.698 C 725.100,871.571 713.306,871.362 714.290,871.234 Z" fill="#09576E" stroke="none" />
  <path id="42" d="M 799,581 C 772.470,607.086 749.330,620.582 720,627.075 C 708.344,629.656 687.545,629.578 676.750,626.913 C 674.167,626.275 671.583,625.638 669,625 C 668.972,623.062 665.552,621.420 661.381,620.099 C 657.210,618.778 647.743,614.616 640.344,610.849 C 632.945,607.082 625.951,604 624.801,604 C 623.651,604 618.025,606.513 612.298,609.585 C 608.827,611.447 605.357,613.308 601.886,615.170 C 600.762,614.071 599.639,612.972 598.515,611.873 C 596.661,610.060 595.367,608.217 595.639,607.776 C 595.911,607.335 599.704,605.342 604.067,603.348 C 610.833,600.255 612,599.361 612,597.271 C 612,595.923 611.002,594.012 609.783,593.025 C 609.044,592.427 608.305,591.828 607.566,591.230 C 608.399,590.150 609.233,589.069 610.066,587.989 C 610.899,586.909 611.732,585.828 612.565,584.748 C 614.549,585.807 616.533,586.865 618.517,587.924 C 622.621,590.114 625.222,590.910 626.896,590.490 C 629.909,589.734 671.791,562.109 674.405,559.154 C 675.453,557.969 676.803,556.993 677.405,556.984 C 678.007,556.975 680.300,555.626 682.500,553.987 C 684.700,552.348 689.200,549.368 692.500,547.365 C 695.800,545.362 701.200,541.897 704.500,539.663 C 707.800,537.429 714.662,533.216 719.750,530.301 C 722.833,528.534 725.917,526.767 729,525 C 741.013,518.892 749.213,515.089 754.973,512.607 C 764.680,508.425 765.576,508.212 767.223,509.702 C 768.264,510.644 769,512.723 769,514.722 C 769,517.593 768.705,518.041 767.141,517.545 C 766.094,517.213 764.762,517.583 764.091,518.391 C 763.436,519.181 758.535,521.725 753.200,524.046 C 740.765,529.456 737.809,530.881 730.500,534.995 C 727.200,536.852 723.238,539.009 721.695,539.787 C 720.152,540.565 717.832,542.259 716.540,543.551 C 715.248,544.843 712.171,546.849 709.702,548.010 C 705.399,550.033 699.914,554.678 699.972,556.250 C 699.981,556.500 699.991,556.750 700,557 C 699.667,557.667 699.333,558.333 699,559 C 694.598,559.687 692.348,561.037 691.160,562.443 C 690.440,563.295 689.720,564.148 689,565 C 651.800,589.358 641,596.809 641,597.274 C 641,597.739 644.150,599.667 648,601.559 C 650.333,602.706 652.667,603.853 655,605 C 657.954,610.792 688.844,615.779 705.500,613.153 C 709.993,612.445 712.619,612.399 712.833,613.025 C 713.016,613.561 713.819,614 714.615,614 C 715.411,614 716.355,614.762 716.712,615.692 C 717.213,616.998 717.618,616.620 718.489,614.033 C 719.518,610.976 720.531,610.316 730.059,606.499 C 743.529,601.102 756.600,594.485 757.277,592.720 C 757.569,591.958 760.426,590.023 763.625,588.418 C 766.824,586.813 771.480,583.637 773.971,581.361 C 785.585,570.749 786.554,570.131 790.702,570.687 C 795.247,571.297 797.333,569.518 797.333,565.036 C 797.333,564.084 797.333,563.131 797.333,562.179 C 799.194,562.358 801.056,562.537 802.917,562.716 C 805.988,563.012 808.856,563.576 809.292,563.969 C 809.728,564.362 808.454,565.768 806.462,567.092 C 804.127,568.644 803.174,569.855 803.782,570.500 C 804.385,571.140 803.694,572.559 801.862,574.440 C 800.288,576.057 799,578.194 799,579.190 C 799,579.793 799,580.397 799,581 Z" fill="#6991C1" stroke="none" />
  <path id="28" d="M 728,523 C 755.296,509.075 768.458,503.857 787.500,499.413 C 796.651,497.277 801.879,496.753 818.609,496.291 C 831.783,495.927 838.936,496.087 839.349,496.755 C 840.380,498.423 837.003,515.824 833.772,525.500 C 827.889,543.115 815.723,563.874 804.615,575.250 C 802.743,577.167 800.872,579.083 799,581 C 799,580.397 799,579.793 799,579.190 C 799,578.194 800.288,576.057 801.862,574.440 C 803.694,572.559 804.385,571.140 803.782,570.500 C 803.174,569.855 804.127,568.644 806.462,567.092 C 808.454,565.768 809.728,564.362 809.292,563.969 C 808.856,563.576 805.988,563.012 802.917,562.716 C 801.056,562.537 799.194,562.358 797.333,562.179 C 797.333,563.131 797.333,564.084 797.333,565.036 C 797.333,569.518 795.247,571.297 790.702,570.687 C 786.554,570.131 785.585,570.749 773.971,581.361 C 771.480,583.637 766.824,586.813 763.625,588.418 C 760.426,590.023 757.569,591.958 757.277,592.720 C 756.600,594.485 743.529,601.102 730.059,606.499 C 720.531,610.316 719.518,610.976 718.489,614.033 C 717.618,616.620 717.213,616.998 716.712,615.692 C 716.355,614.762 715.411,614 714.615,614 C 713.819,614 713.016,613.561 712.833,613.025 C 712.619,612.399 709.993,612.445 705.500,613.153 C 688.844,615.779 657.954,610.792 655,605 C 669.338,608.924 677.628,610.585 682.674,611.224 C 717.006,615.570 760.538,594.723 792.769,558.500 C 803.754,546.155 815.373,527.698 819.470,516.085 C 820.786,512.354 820.751,512.056 818.939,511.481 C 816.664,510.759 800.493,512.541 790.556,514.609 C 774.319,517.988 751.145,526.857 734,536.254 C 725.751,540.775 704.519,553.555 701.750,555.666 C 701.167,556.111 700.583,556.555 700,557 C 699.991,556.750 699.981,556.500 699.972,556.250 C 699.914,554.678 705.399,550.033 709.702,548.010 C 712.171,546.849 715.248,544.843 716.540,543.551 C 717.832,542.259 720.152,540.565 721.695,539.787 C 723.238,539.009 727.200,536.852 730.500,534.995 C 737.809,530.881 740.765,529.456 753.200,524.046 C 758.535,521.725 763.436,519.181 764.091,518.391 C 764.762,517.583 766.094,517.213 767.141,517.545 C 768.705,518.041 769,517.593 769,514.722 C 769,512.723 768.264,510.644 767.223,509.702 C 765.576,508.212 764.680,508.425 754.973,512.607 C 749.213,515.089 741.013,518.892 729,525 C 728.667,524.333 728.333,523.667 728,523 Z" fill="#9F8ECA" stroke="none" />
  <path id="25" d="M 501,617 C 468.285,602.201 439.525,574.879 423.851,543.705 C 415.755,527.602 408.665,499.935 411.825,496.775 C 415.295,493.305 449.793,495.470 469.042,500.365 C 494.157,506.752 529.638,523.674 549.250,538.618 C 551.167,540.079 553.083,541.539 555,543 C 553,542 551,541 549,540 C 547.531,539.167 546.063,538.333 544.594,537.500 C 542.171,536.125 539.664,535 539.024,535 C 538.384,535 535.979,533.723 533.680,532.163 C 531.381,530.603 527.142,528.017 524.260,526.416 C 519.792,523.934 518.727,523.690 517.024,524.753 C 515.926,525.439 514.332,526 513.482,526 C 511.334,526 510.511,528.706 512.082,530.599 C 512.800,531.465 517.013,533.980 521.444,536.188 C 525.875,538.396 530.963,541.507 536,546 C 536.667,547 537.333,548 538,549 C 493.743,523.510 468.960,514.192 440.443,512.319 C 428.959,511.565 428.978,511.518 435.374,524.573 C 449.483,553.369 472.930,577.738 504.335,596.250 C 505.890,597.167 507.445,598.083 509,599 C 508,599 507,599 506,599 C 504.583,598.122 503.167,597.243 501.750,596.365 C 499.413,594.916 495.025,592.538 492,591.080 C 484.511,587.471 481.800,585.635 472.471,577.854 C 469.795,575.622 467.119,573.389 464.443,571.157 C 461.286,571.195 458.128,571.235 454.971,571.273 C 451.814,571.311 448.657,571.350 445.500,571.388 C 448.167,574.198 450.833,577.007 453.500,579.817 C 457.900,584.453 464.800,590.778 468.832,593.873 C 472.864,596.968 478.939,601.623 482.332,604.219 C 485.725,606.815 491.312,610.528 501,616 C 501,616.333 501,616.667 501,617 Z" fill="#6EDCD7" stroke="none" />
  <path id="5" d="M 555,543 C 606.537,576.956 622.370,587.257 623.433,587.799 C 625.664,588.936 631.006,585.803 657.900,567.585 C 663.367,563.882 668.834,560.179 674.301,556.476 C 672.084,554.563 669.867,552.651 667.650,550.738 C 665.433,548.825 663.217,546.913 661,545 C 661.250,544.975 661.500,544.951 661.750,544.926 C 662.162,544.886 665.338,546.911 668.808,549.426 C 672.278,551.941 675.694,554 676.400,554 C 677.106,554 678.654,552.875 682,549 C 684.317,549 691.311,544.939 699.038,539.975 C 706.765,535.012 716.443,529.162 720.544,526.975 C 723.029,525.650 725.515,524.325 728,523 C 728.333,523.667 728.667,524.333 729,525 C 725.917,526.767 722.833,528.534 719.750,530.301 C 714.662,533.216 707.800,537.429 704.500,539.663 C 701.200,541.897 695.800,545.362 692.500,547.365 C 689.200,549.368 684.700,552.348 682.500,553.987 C 680.300,555.626 678.007,556.975 677.405,556.984 C 676.803,556.993 675.453,557.969 674.405,559.154 C 671.791,562.109 629.909,589.734 626.896,590.490 C 625.222,590.910 622.621,590.114 618.517,587.924 C 616.533,586.865 614.549,585.807 612.565,584.748 C 611.732,585.828 610.899,586.909 610.066,587.989 C 609.233,589.069 608.399,590.150 607.566,591.230 C 608.305,591.828 609.044,592.427 609.783,593.025 C 611.002,594.012 612,595.923 612,597.271 C 612,599.361 610.833,600.255 604.067,603.348 C 599.704,605.342 595.911,607.335 595.639,607.776 C 595.367,608.217 596.661,610.060 598.515,611.873 C 599.639,612.972 600.762,614.071 601.886,615.170 C 605.357,613.308 608.827,611.447 612.298,609.585 C 618.025,606.513 623.651,604 624.801,604 C 625.951,604 632.945,607.082 640.344,610.849 C 647.743,614.616 657.210,618.778 661.381,620.099 C 665.552,621.420 668.972,623.062 669,625 C 654.799,620.235 644.928,615.972 637.902,612.451 C 633.644,610.317 629.385,608.183 625.127,606.049 C 620.689,608.297 616.252,610.545 611.814,612.792 C 597.783,619.898 583.778,624.927 570.535,627.617 C 564.470,628.849 559.103,629.115 548.035,628.731 C 531.981,628.174 523.842,626.432 509.345,620.446 C 506.563,619.297 503.782,618.148 501,617 C 501,616.667 501,616.333 501,616 C 501,615.783 501,615.565 501,615.348 C 501,614.990 502.913,615.477 505.250,616.432 C 507.587,617.387 513.232,619.458 517.793,621.035 C 520.557,621.991 523.323,622.946 526.087,623.902 C 526.438,623.002 526.789,622.101 527.140,621.201 C 528.457,617.823 527.094,610 525,608.920 C 524.175,608.495 519.675,606.428 515,604.328 C 510.325,602.228 506.388,600.170 506,599 C 507,599 508,599 509,599 C 510.347,599.681 511.695,600.361 513.042,601.042 C 520.479,604.799 537.407,609.874 546.500,611.073 C 563.746,613.347 583.033,610.108 600.750,601.966 C 605.838,599.628 609.978,597.442 609.951,597.108 C 609.924,596.774 599.124,589.412 562,565 C 561.173,564.812 560.347,564.623 559.520,564.435 C 558.156,564.125 555.680,562.325 551,557 C 546.667,554.333 542.333,551.667 538,549 C 537.333,548 536.667,547 536,546 C 536.001,545.750 536.001,545.500 536.002,545.250 C 536.004,544.133 553.003,554.850 556.684,558.290 C 561.163,562.475 563.203,561.466 562.805,555.267 C 562.507,550.622 562.353,550.418 556.005,546.271 C 552.433,543.937 549.395,541.572 549,540 C 551,541 553,542 555,543 Z" fill="#6898C5" stroke="none" />
  <path id="31" d="M 661,545 C 651.539,534.537 646.828,528.158 644.427,524.073 C 632.567,503.897 628.410,479.432 632.903,456.255 C 636.376,438.337 643.968,422.628 657.551,405.250 C 659.701,402.500 661.850,399.750 664,397 C 664.250,397.015 664.500,397.029 664.750,397.044 C 665.162,397.068 666.547,396.506 667.826,395.794 C 669.242,395.006 667.664,397.493 663.789,402.153 C 660.289,406.362 655.501,412.550 653.149,415.903 C 651.723,417.935 650.298,419.968 648.872,422 C 649.853,422 650.833,422 651.814,422 C 653.724,422 655.261,422.762 656.197,424.171 C 658.145,427.104 660.313,425.704 659.507,422.034 C 658.984,419.653 659.374,418.977 662.245,417.283 C 665.915,415.118 667.267,413.534 676.059,401.096 C 679.326,396.474 682,393.436 682,396 C 668.861,415.203 663.445,423.466 661.489,426.750 C 655.855,436.207 651.186,448.290 648.902,459.316 C 642.703,489.248 653.309,522.327 675.815,543.250 C 677.877,545.167 679.938,547.083 682,549 C 678.654,552.875 677.106,554 676.400,554 C 675.694,554 672.278,551.941 668.808,549.426 C 665.338,546.911 662.162,544.886 661.750,544.926 C 661.500,544.951 661.250,544.975 661,545 Z" fill="#1C799D" stroke="none" />
  <path id="26" d="M 445,385 C 447.335,366.840 450.317,353.155 454.655,340.693 C 473.898,285.409 517.512,243.665 572.892,227.528 C 576.928,226.352 580.964,225.176 585,224 C 583.525,224.818 582.049,225.637 580.574,226.455 C 578.140,227.805 571.968,230.322 566.857,232.048 C 555.724,235.808 548.119,239.527 547.325,241.597 C 546.991,242.466 547.709,244.012 549.009,245.223 C 551.023,247.100 551.622,247.197 554.388,246.096 C 569.217,240.197 577.252,238 584,238 C 546.096,251.009 524.866,263.639 504.195,285.476 C 482.273,308.635 468.105,334.792 460.524,366.100 C 453.441,395.351 454.896,427.503 464.747,459.418 C 466.551,465.262 467.054,468.076 466.206,467.582 C 465.494,467.167 464.283,467.350 463.514,467.988 C 461.632,469.550 459.552,465.332 453.656,448 C 447.757,430.659 445.937,420.219 445.419,400.750 C 445.279,395.500 445.140,390.250 445,385 Z" fill="#7ADFD8" stroke="none" />
  <path id="27" d="M 556,349 C 557.459,347.146 558.385,349.402 559.456,354.119 C 562.639,368.137 568.598,377.690 589.944,403 C 594.351,408.225 599.991,416.212 602.478,420.750 C 603.985,423.500 605.493,426.250 607,429 C 606.417,428.583 605.833,428.167 605.250,427.750 C 603.850,426.750 604.021,427.601 606.101,432 C 607.531,435.025 609.494,439.905 610.463,442.845 C 611.050,444.627 611.637,446.409 612.224,448.191 C 611.020,449.183 609.816,450.176 608.612,451.168 C 606.485,452.921 605,455.039 605,456.318 C 605,460.329 602.016,456.826 601.748,452.500 C 601.414,447.101 595.155,434.579 595,439 C 585.924,422.778 585.628,422.313 575.783,408.860 C 566.495,396.169 559.680,383.711 557.552,375.540 C 556.636,372.023 556,365.362 556,359.290 C 556,355.860 556,352.430 556,349 Z" fill="#389CAB" stroke="none" />
  <path id="31" d="M 607,429 C 616.889,451.285 617.503,453.978 617.485,475 C 617.467,495.566 616.055,502.071 608.041,518.500 C 602.919,529 592.456,542.992 585.664,548.422 C 584.385,549.444 583.106,550.468 581.827,551.490 C 580.281,550.466 578.736,549.442 577.190,548.418 C 575.644,547.394 574.099,546.371 572.553,545.347 C 574.704,542.973 576.856,540.600 579.007,538.226 C 586.813,529.614 591.968,521.300 596.026,510.777 C 601.058,497.727 602.300,489.555 601.761,473.035 C 601.344,460.238 600.912,457.334 598.144,448.750 C 597.096,445.500 596.048,442.250 595,439 C 595.155,434.579 601.414,447.101 601.748,452.500 C 602.016,456.826 605,460.329 605,456.318 C 605,455.039 606.485,452.921 608.612,451.168 C 609.816,450.176 611.020,449.183 612.224,448.191 C 611.637,446.409 611.050,444.627 610.463,442.845 C 609.494,439.905 607.531,435.025 606.101,432 C 604.021,427.601 603.850,426.750 605.250,427.750 C 605.833,428.167 606.417,428.583 607,429 Z" fill="#1C799D" stroke="none" />
  <path id="44" d="M 597.877,336 C 601.102,326.186 607.725,319.304 616.644,316.499 C 629.754,312.375 642.790,317.888 648.915,330.146 C 660.061,352.452 638.799,375.624 614.715,367.418 C 608.991,365.468 602.457,359.288 599.822,353.331 C 597.594,348.294 596.638,339.772 597.877,336 ZM 643.250,356.044 C 642.838,356.068 640.499,356.473 638.055,356.945 C 635.381,357.461 632.602,357.418 631.078,356.839 C 627.359,355.425 619.344,355.469 617.604,356.913 C 615.842,358.375 612.765,357.629 608.673,354.746 C 606.503,353.217 605.573,353.029 604.673,353.934 C 602.834,355.783 612.537,364.528 618.090,366.026 C 623.316,367.435 630.598,366.760 635.196,364.439 C 640.426,361.799 646.107,355.878 643.250,356.044 ZM 639.250,322.374 C 635.508,319.649 628.562,317 625.158,317 C 620.708,317 613.717,319.785 609.555,323.216 C 608.277,324.269 606.999,325.322 605.721,326.375 C 606.967,326.806 608.214,327.239 609.460,327.670 C 612.174,328.610 613.742,328.673 615.182,327.902 C 616.701,327.089 617.576,327.211 618.912,328.420 C 620.814,330.141 630.470,330.666 631.438,329.100 C 631.744,328.605 634.245,327.661 636.997,327.001 C 639.749,326.341 642,325.480 642,325.088 C 642,324.696 640.763,323.475 639.250,322.374 Z" fill="#4FB0B5" stroke="none" />
  <path id="37" d="M 506,599 C 506.388,600.170 510.325,602.228 515,604.328 C 519.675,606.428 524.175,608.495 525,608.920 C 527.094,610 528.457,617.823 527.140,621.201 C 526.789,622.101 526.438,623.002 526.087,623.902 C 523.323,622.946 520.557,621.991 517.793,621.035 C 513.232,619.458 507.587,617.387 505.250,616.432 C 502.913,615.477 501,614.990 501,615.348 C 501,615.565 501,615.783 501,616 C 491.312,610.528 485.725,606.815 482.332,604.219 C 478.939,601.623 472.864,596.968 468.832,593.873 C 464.800,590.778 457.900,584.453 453.500,579.817 C 450.833,577.007 448.167,574.198 445.500,571.388 C 448.657,571.350 451.814,571.311 454.971,571.273 C 458.128,571.235 461.286,571.195 464.443,571.157 C 467.119,573.389 469.795,575.622 472.471,577.854 C 481.800,585.635 484.511,587.471 492,591.080 C 495.025,592.538 499.413,594.916 501.750,596.365 C 503.167,597.243 504.583,598.122 506,599 Z" fill="#00ABC3" stroke="none" />
  <path id="44" d="M 664,397 C 672.207,387.279 675.973,382.441 677.663,379.978 C 682.545,372.864 687.951,361.419 689.361,355.212 C 690.192,351.552 691.168,349.500 692.079,349.500 C 693.225,349.500 693.500,351.729 693.500,361 C 693.500,374.508 690.861,384.402 685.328,391.644 C 684.219,393.096 683.109,394.548 682,396 C 682,393.436 679.326,396.474 676.059,401.096 C 667.267,413.534 665.915,415.118 662.245,417.283 C 659.374,418.977 658.984,419.653 659.507,422.034 C 660.313,425.704 658.145,427.104 656.197,424.171 C 655.261,422.762 653.724,422 651.814,422 C 650.833,422 649.853,422 648.872,422 C 650.298,419.968 651.723,417.935 653.149,415.903 C 655.501,412.550 660.289,406.362 663.789,402.153 C 667.664,397.493 669.242,395.006 667.826,395.794 C 666.547,396.506 665.162,397.068 664.750,397.044 C 664.500,397.029 664.250,397.015 664,397 Z" fill="#4FB0B5" stroke="none" />
  <path id="44" d="M 549,540 C 549.395,541.572 552.433,543.937 556.005,546.271 C 562.353,550.418 562.507,550.622 562.805,555.267 C 563.203,561.466 561.163,562.475 556.684,558.290 C 553.003,554.850 536.004,544.133 536.002,545.250 C 536.001,545.500 536.001,545.750 536,546 C 530.963,541.507 525.875,538.396 521.444,536.188 C 517.013,533.980 512.800,531.465 512.082,530.599 C 510.511,528.706 511.334,526 513.482,526 C 514.332,526 515.926,525.439 517.024,524.753 C 518.727,523.690 519.792,523.934 524.260,526.416 C 527.142,528.017 531.381,530.603 533.680,532.163 C 535.979,533.723 538.384,535 539.024,535 C 539.664,535 542.171,536.125 544.594,537.500 C 546.063,538.333 547.531,539.167 549,540 Z" fill="#4FB0B5" stroke="none" />
  <path id="48" d="M 862.407,932.450 C 864.095,928.575 869.070,924.363 872.973,923.506 C 877.306,922.554 882.421,924.576 886.003,928.656 C 888.586,931.598 889.055,932.886 888.803,936.345 C 888.702,937.730 888.601,939.115 888.500,940.500 C 884.750,940.594 881,940.689 877.250,940.783 C 871.062,940.939 866,941.480 866,941.986 C 866,944.527 868.630,948.071 871.540,949.452 C 875.826,951.486 877.781,951.406 882.492,949.004 C 887.638,946.380 889.534,947.921 885.779,951.676 C 881.971,955.484 873.576,956.137 868.529,953.018 C 862.007,948.987 859.245,939.708 862.407,932.450 ZM 881.686,930.174 C 880.087,928.672 878.104,928 875.274,928 C 871.927,928 870.704,928.563 868.589,931.077 C 864.155,936.347 864.861,937 875,937 C 883.753,937 884,936.936 884,934.674 C 884,933.395 882.959,931.370 881.686,930.174 Z" fill="#4D4F75" stroke="none" />
  <path id="48" d="M 536.891,931.411 C 539.440,927.230 543.511,924.182 547.558,923.423 C 554.799,922.065 563.408,929.717 562.797,936.968 C 562.698,938.145 562.599,939.323 562.500,940.500 C 558.750,940.594 555,940.689 551.250,940.783 C 544.477,940.953 540,941.470 540,942.082 C 540,944.615 543.181,948.832 545.959,949.983 C 549.488,951.445 554.554,950.713 557.147,948.367 C 559.090,946.608 562.414,947.246 561.756,949.251 C 561.530,949.938 559.851,951.513 558.025,952.750 C 551.339,957.280 541.355,954.910 536.995,947.759 C 534.388,943.483 534.337,935.599 536.891,931.411 ZM 555.927,930.635 C 554.257,928.512 553.012,928 549.516,928 C 545.899,928 544.747,928.512 542.589,931.077 C 538.155,936.347 538.861,937 549,937 C 557.116,937 558,936.817 558,935.135 C 558,934.109 557.067,932.084 555.927,930.635 Z" fill="#4D4F75" stroke="none" />
  <path id="35" d="M 332.025,914 C 333.219,914 334.380,914.923 334.855,916.250 C 335.298,917.487 337.823,924.717 340.466,932.315 C 343.109,939.913 345.607,945.763 346.018,945.315 C 346.429,944.867 349.014,937.750 351.764,929.500 C 358.653,908.833 359.082,908.847 365.922,929.949 C 368.784,938.777 371.440,946 371.825,946 C 372.210,946 374.995,938.802 378.013,930.005 C 382.914,915.717 383.740,914.010 385.750,914.005 C 386.987,914.002 388,914.171 388,914.380 C 388,914.723 379.277,939.203 375.376,949.806 C 374.121,953.216 373.360,954.048 371.713,953.806 C 369.983,953.551 368.787,950.940 364.591,938.250 C 361.818,929.862 359.255,923 358.896,923 C 358.537,923 355.827,929.975 352.872,938.500 C 345.511,959.736 345.525,959.740 336.735,934.740 C 333.014,924.158 329.977,915.162 329.985,914.750 C 329.993,914.338 330.911,914 332.025,914 Z" fill="#4A4C72" stroke="none" />
  <path id="48" d="M 728.752,932.020 C 734.002,921.571 749.833,921.118 756.005,931.241 C 761.741,940.648 755.040,953.452 743.712,954.729 C 731.932,956.057 723.277,942.918 728.752,932.020 ZM 752.284,934 C 751.218,931.908 748.994,929.764 746.756,928.670 C 734.971,922.911 725.863,939.817 736.106,948.436 C 740.489,952.124 745.090,951.887 749.472,947.750 C 753.806,943.658 754.780,938.898 752.284,934 Z" fill="#4D4F75" stroke="none" />
  <path id="48" d="M 402.186,932.059 C 405.286,926.111 409.041,923.500 414.500,923.500 C 421.610,923.500 427.815,929.365 428.254,936.500 C 428.336,937.833 428.418,939.167 428.500,940.500 C 424.583,940.594 420.667,940.688 416.750,940.782 C 409.289,940.961 405,941.451 405,942.127 C 405,944.563 408.602,949.014 411.348,949.971 C 415.504,951.420 417.040,951.274 421.492,949.004 C 423.902,947.775 425.765,947.365 426.337,947.937 C 429.017,950.617 421.960,955 414.967,955 C 403.752,955 396.766,942.461 402.186,932.059 ZM 422.845,932.500 C 421.032,929.185 418.830,928 414.483,928 C 410.052,928 406.865,930.409 405.548,934.750 C 404.874,936.974 404.976,937 414.433,937 C 424.482,937 425.120,936.659 422.845,932.500 Z" fill="#4D4F75" stroke="none" />
  <path id="9" d="M 776.594,924 C 777.470,924 778.422,924.900 778.710,926 C 778.998,927.100 779.447,928 779.709,928 C 779.971,928 781.329,927.100 782.727,926 C 786.695,922.879 793.170,923.288 797.234,926.916 C 798.323,927.888 799.411,928.859 800.500,929.831 C 800.611,933.859 800.723,937.888 800.834,941.916 C 801.152,953.436 801.074,954 799.172,954 C 797.321,954 797.153,953.211 796.839,943.102 C 796.565,934.277 796.153,931.821 794.676,930.192 C 790.673,925.775 783.204,926.772 780.453,932.091 C 779.480,933.972 779,938.055 779,944.450 C 779,953.333 778.860,954 777,954 C 775.089,954 775,953.333 775,939 C 775,925.942 775.207,924 776.594,924 Z" fill="#4C4E74" stroke="none" />
  <path id="30" d="M 639.250,322.374 C 640.763,323.475 642,324.696 642,325.088 C 642,325.480 639.749,326.341 636.997,327.001 C 634.245,327.661 631.744,328.605 631.438,329.100 C 630.470,330.666 620.814,330.141 618.912,328.420 C 617.576,327.211 616.701,327.089 615.182,327.902 C 613.742,328.673 612.174,328.610 609.460,327.670 C 608.214,327.239 606.967,326.806 605.721,326.375 C 606.999,325.322 608.277,324.269 609.555,323.216 C 613.717,319.785 620.708,317 625.158,317 C 628.562,317 635.508,319.649 639.250,322.374 Z" fill="#54B9B9" stroke="none" />
  <path id="35" d="M 821,924 C 822.333,924 823,924.667 823,926 C 823,927.100 823.266,928 823.592,928 C 823.918,928 825.329,927.100 826.727,926 C 830.277,923.208 837.828,923.259 840.873,926.096 C 844.308,929.297 845,932.225 845,943.565 C 845,953.333 844.872,954 843,954 C 841.129,954 841,953.333 841,943.635 C 841,934.763 840.710,932.902 838.988,930.712 C 834.800,925.388 826.325,926.759 824.108,933.119 C 823.498,934.868 823,940.281 823,945.149 C 823,953.333 822.849,954 821,954 C 819.089,954 819,953.333 819,939 C 819,924.667 819.089,924 821,924 Z" fill="#4A4C72" stroke="none" />
  <path id="9" d="M 495,924 C 496.333,924 497,924.667 497,926 C 497,927.100 497.266,928 497.592,928 C 497.918,928 499.329,927.100 500.727,926 C 503.864,923.532 510.617,923.343 513.883,925.631 C 517.691,928.298 519,932.988 519,943.968 C 519,953.179 518.844,954 517.089,954 C 515.345,954 515.148,953.047 514.839,943.102 C 514.565,934.277 514.153,931.821 512.676,930.192 C 508.673,925.775 501.204,926.772 498.453,932.091 C 497.480,933.972 497,938.055 497,944.450 C 497,953.333 496.860,954 495,954 C 493.089,954 493,953.333 493,939 C 493,924.667 493.089,924 495,924 Z" fill="#4C4E74" stroke="none" />
  <path id="27" d="M 643.250,356.044 C 646.107,355.878 640.426,361.799 635.196,364.439 C 630.598,366.760 623.316,367.435 618.090,366.026 C 612.537,364.528 602.834,355.783 604.673,353.934 C 605.573,353.029 606.503,353.217 608.673,354.746 C 612.765,357.629 615.842,358.375 617.604,356.913 C 619.344,355.469 627.359,355.425 631.078,356.839 C 632.602,357.418 635.381,357.461 638.055,356.945 C 640.499,356.473 642.838,356.068 643.250,356.044 Z" fill="#389CAB" stroke="none" />
  <path id="48" d="M 678.465,926.637 C 682.622,914.975 697.025,909.478 708.093,915.330 C 712.655,917.742 714.264,920.578 711.643,921.584 C 710.815,921.902 708.771,921.151 707.100,919.916 C 702.489,916.507 694.478,916.151 690.092,919.161 C 682.644,924.273 680.221,932.053 683.447,940.501 C 685.432,945.698 688.658,948.562 694.214,950.058 C 699.003,951.347 702.811,950.617 707.343,947.542 C 709.564,946.035 711.231,945.527 712.126,946.086 C 715.944,948.468 705.572,955.014 698.038,954.978 C 689.129,954.935 680.702,948.625 678.141,940.078 C 676.667,935.157 676.757,931.429 678.465,926.637 Z" fill="#4D4F75" stroke="none" />
  <path id="34" d="M 944.646,924.688 C 945.024,924.310 946.159,924 947.167,924 C 948.677,924 949,923.195 949,919.427 C 949,915.612 949.290,914.908 950.750,915.185 C 952.022,915.426 952.583,916.661 952.805,919.706 C 952.907,921.102 953.008,922.499 953.110,923.895 C 954.675,923.996 956.240,924.096 957.805,924.197 C 961.177,924.414 962.500,924.923 962.500,926 C 962.500,927.080 961.170,927.586 957.750,927.805 C 956.167,927.907 954.583,928.008 953,928.110 C 953,931.551 953,934.991 953,938.432 C 953,949.950 953.777,951.553 958.991,950.788 C 961.340,950.443 962,950.723 962,952.065 C 962,954.070 957.870,955.397 954.665,954.422 C 949.532,952.860 949,951.451 949,939.415 C 949,928.607 948.910,928.126 946.828,927.820 C 944.573,927.488 943.453,925.881 944.646,924.688 Z" fill="#464A71" stroke="none" />
  <path id="48" d="M 577.929,948.544 C 578.498,948.192 581.195,948.697 583.923,949.666 C 589.419,951.618 593.423,950.927 595.396,947.687 C 596.845,945.308 593.437,942.390 587.447,940.882 C 578.995,938.754 576.004,931.539 581.357,926.189 C 583.572,923.975 584.911,923.513 588.926,923.571 C 594.071,923.646 599.435,926.248 598.704,928.314 C 598.473,928.966 597.433,929.364 596.392,929.198 C 587.582,927.793 585.375,927.843 584.019,929.477 C 581.884,932.050 583.802,934.140 590.945,937.025 C 598.024,939.883 600,941.974 600,946.602 C 600,951.376 595.322,955 589.158,955 C 582.490,955 574.715,950.530 577.929,948.544 Z" fill="#4D4F75" stroke="none" />
  <path id="43" d="M 617.250,948.468 C 625.811,951.136 627.867,951.318 630.440,949.632 C 635.096,946.581 633.738,944.406 625.138,941.142 C 617.898,938.394 616,936.499 616,932.019 C 616,924.855 624.634,920.905 632,924.698 C 635.815,926.662 636.827,929.700 633.500,929.198 C 624.180,927.792 622.384,927.832 621.019,929.477 C 618.905,932.025 620.779,934.123 627.740,937 C 635.651,940.270 637,941.536 637,945.699 C 637,951.105 632.528,955.001 626.327,954.996 C 620.939,954.992 615,952.057 615,949.398 C 615,948.165 615.550,947.938 617.250,948.468 Z" fill="#4F537B" stroke="none" />
  <path id="11" d="M 551,557 C 555.680,562.325 558.156,564.125 559.520,564.435 C 560.347,564.623 561.173,564.812 562,565 C 559.049,565.667 556.097,566.333 553.146,567 C 546.996,568.389 540.673,569 532.446,569 C 519.612,569 518.553,568.017 529.345,566.119 C 539.229,564.381 549.266,560.154 551,557 Z" fill="#7EBDD2" stroke="none" />
  <path id="48" d="M 904.034,935.159 C 905.759,927.479 915.149,921.886 922.841,923.957 C 927.612,925.242 930.898,928.502 929.167,930.233 C 928.252,931.148 927.319,931.029 925.086,929.710 C 920.617,927.070 915.588,927.503 911.842,930.850 C 909.102,933.298 908.641,934.396 908.576,938.642 C 908.477,945.083 910.749,948.545 916.133,950.158 C 919.874,951.279 920.665,951.184 924.329,949.177 C 927.796,947.278 928.587,947.158 929.778,948.349 C 930.969,949.540 930.700,950.078 927.927,952.052 C 923.085,955.500 915.492,955.853 911.054,952.836 C 905.233,948.879 902.499,941.994 904.034,935.159 Z" fill="#4D4F75" stroke="none" />
  <path id="16" d="M 699,559 C 712.365,564.099 723.285,566.986 729.315,567.015 C 731.067,567.023 733.175,567.495 734,568.063 C 736.481,569.770 703.701,568.536 695.750,566.624 C 693.500,566.083 691.250,565.541 689,565 C 689.720,564.148 690.440,563.295 691.160,562.443 C 692.348,561.037 694.598,559.687 699,559 Z" fill="#3579A6" stroke="none" />
  <path id="12" d="M 752.284,934 C 754.780,938.898 753.806,943.658 749.472,947.750 C 745.090,951.887 740.489,952.124 736.106,948.436 C 725.863,939.817 734.971,922.911 746.756,928.670 C 748.994,929.764 751.218,931.908 752.284,934 Z" fill="#FEFEFE" stroke="none" />
  <path id="35" d="M 447.250,912.180 C 448,912.287 448.750,912.393 449.500,912.500 C 449.454,919.333 449.409,926.167 449.363,933 C 449.229,953.047 449.179,953.508 447.113,953.820 C 445.019,954.137 445,953.950 445,933 C 445,925.954 445,918.907 445,911.861 C 445.750,911.968 446.500,912.073 447.250,912.180 Z" fill="#4A4C72" stroke="none" />
  <path id="34" d="M 469.647,912.687 C 470.025,912.309 470.934,912 471.667,912 C 472.736,912 473,916.179 473,933.073 C 473,952.604 472.872,954.122 471.250,953.810 C 469.664,953.505 469.475,951.600 469.230,933.424 C 469.081,922.396 469.269,913.065 469.647,912.687 Z" fill="#464A71" stroke="none" />
  <path id="12" d="M 555.927,930.635 C 557.067,932.084 558,934.109 558,935.135 C 558,936.817 557.116,937 549,937 C 538.861,937 538.155,936.347 542.589,931.077 C 544.747,928.512 545.899,928 549.516,928 C 553.012,928 554.257,928.512 555.927,930.635 Z" fill="#FEFEFE" stroke="none" />
  <path id="12" d="M 881.686,930.174 C 882.959,931.370 884,933.395 884,934.674 C 884,936.936 883.753,937 875,937 C 864.861,937 864.155,936.347 868.589,931.077 C 870.704,928.563 871.927,928 875.274,928 C 878.104,928 880.087,928.672 881.686,930.174 Z" fill="#FEFEFE" stroke="none" />
  <path id="12" d="M 422.845,932.500 C 425.120,936.659 424.482,937 414.433,937 C 404.976,937 404.874,936.974 405.548,934.750 C 406.865,930.409 410.052,928 414.483,928 C 418.830,928 421.032,929.185 422.845,932.500 Z" fill="#FEFEFE" stroke="none" />
</svg>