<?xml version="1.0" encoding="UTF-8"?>
<svg xmlns="http://www.w3.org/2000/svg" width="471" height="468" viewBox="0 0 471 468">
  <path id="19" d="M 196,29 C 211.228,25.875 220.131,25 236.694,25 C 280.159,25 317.613,38.512 350.630,66.104 C 369.533,81.901 383.934,100.357 395.806,124 C 409.361,150.996 414.404,172.147 414.404,202 C 414.404,222.254 413.145,231.310 407.796,249.500 C 404.937,259.224 398.053,274.482 395.615,276.500 C 394.951,277.050 393.811,278.962 393.082,280.750 C 392.353,282.538 391.029,284 390.138,284 C 388.718,284 388.689,283.729 389.898,281.792 C 390.657,280.577 391.832,277.315 392.509,274.542 C 393.186,271.769 394.930,265.492 396.383,260.593 C 413.585,202.614 402.130,145.309 363.982,98.500 C 339.920,68.975 300.164,46.404 262,40.599 C 241.404,37.466 226.293,37.704 203.750,41.519 C 200.833,42.013 197.917,42.506 195,43 C 187.540,43 181.835,44.584 174.024,47.572 C 170.040,49.096 166.055,50.620 162.071,52.144 C 161.350,51.472 160.628,50.800 159.907,50.128 C 158.603,48.913 157.988,47.474 158.359,46.506 C 159.061,44.676 166.824,41.015 178.500,37.006 C 182.900,35.495 188.637,33.075 191.250,31.629 C 192.833,30.753 194.417,29.876 196,29 Z" fill="#B5A0D9" stroke="none" />
  <path id="1" d="M 310,364 C 310.333,363.333 310.667,362.667 311,362 C 311.583,361.555 312.167,361.111 312.750,360.666 C 315.519,358.555 336.751,345.775 345,341.254 C 362.145,331.857 385.319,322.988 401.556,319.609 C 411.493,317.541 427.664,315.759 429.939,316.481 C 431.751,317.056 431.786,317.354 430.470,321.085 C 426.373,332.698 414.754,351.155 403.769,363.500 C 371.538,399.723 328.006,420.570 293.674,416.224 C 288.628,415.585 280.337,413.924 266,410 C 263.667,408.853 261.333,407.706 259,406.559 C 255.150,404.667 252,402.739 252,402.274 C 252,401.809 262.800,394.358 300,370 C 302.250,370.541 304.500,371.083 306.750,371.624 C 314.701,373.536 347.481,374.770 345,373.063 C 344.175,372.495 342.067,372.023 340.315,372.015 C 334.285,371.986 323.365,369.099 310,364 Z" fill="#FEFEFE" stroke="none" />
  <path id="1" d="M 120,404 C 118.445,403.083 116.890,402.167 115.335,401.250 C 83.930,382.738 60.483,358.369 46.374,329.573 C 39.978,316.518 39.959,316.565 51.443,317.319 C 79.960,319.192 104.743,328.510 149,354 C 153.333,356.667 157.667,359.333 162,362 C 161.750,362.455 161.500,362.909 161.250,363.364 C 160.171,365.326 148.347,369.712 140.345,371.119 C 129.553,373.017 130.612,374 143.446,374 C 151.673,374 157.996,373.389 173,370 C 180.984,375.250 188.967,380.500 196.951,385.750 C 210.124,394.413 220.924,401.774 220.951,402.108 C 221.060,403.461 201.880,411.376 193.012,413.637 C 168.486,419.890 148.770,417.288 120,404 Z" fill="#FEFEFE" stroke="none" />
  <path id="20" d="M 410,386 C 383.470,412.086 360.330,425.582 331,432.075 C 321.554,434.166 299.654,434.676 292.250,432.976 C 290.833,432.651 289.417,432.325 288,432 C 288.773,429.526 288.267,429 287.026,429 C 282.712,429 263.277,421.695 251.262,415.558 C 244.200,411.951 237.315,409.008 235.961,409.019 C 234.607,409.030 229.278,411.280 224.117,414.019 C 218.956,416.758 214.006,418.987 213.117,418.972 C 212.228,418.957 210.158,417.578 208.518,415.907 C 207.524,414.894 206.529,413.882 205.535,412.869 C 207.529,411.974 209.523,411.079 211.517,410.184 C 224.854,404.199 226.235,402.484 221.361,397.953 C 220.481,397.135 219.602,396.318 218.722,395.500 C 219.561,394.512 220.399,393.524 221.238,392.536 C 222.077,391.548 222.915,390.559 223.754,389.571 C 225.136,390.486 226.518,391.400 227.900,392.315 C 230.181,393.824 233.395,395.329 235.044,395.659 C 238.586,396.367 241.778,394.537 268,376.759 C 277.625,370.233 287.075,363.829 289,362.527 C 290.925,361.225 293.447,359.224 294.605,358.080 C 295.763,356.936 297.195,356 297.788,356 C 298.381,356 303.734,352.769 309.683,348.820 C 319.547,342.272 332.108,334.412 337.764,331.250 C 338.509,330.833 339.255,330.417 340,330 C 355.888,322.375 362.076,319.481 364.002,318.651 C 377.837,312.687 376.679,312.988 378.411,314.902 C 379.285,315.867 380,318.133 380,319.936 C 380,322.567 379.675,323.090 378.355,322.583 C 377.450,322.236 375.988,322.566 375.105,323.317 C 374.222,324.068 368.550,326.845 362.500,329.488 C 348.647,335.540 331.025,345.240 326.926,349.069 C 325.202,350.679 322.501,352.335 320.924,352.748 C 318.173,353.469 310.877,359.695 310.960,361.250 C 310.973,361.500 310.987,361.750 311,362 C 310.667,362.667 310.333,363.333 310,364 C 305.598,364.687 303.348,366.037 302.160,367.443 C 301.440,368.295 300.720,369.148 300,370 C 262.800,394.358 252,401.809 252,402.274 C 252,402.739 255.150,404.667 259,406.559 C 261.333,407.706 263.667,408.853 266,410 C 266,412.743 277.058,416.408 291.529,418.460 C 300.122,419.679 316.831,419.140 322.075,417.476 C 323.154,417.133 324,417.335 324,417.933 C 324,418.520 324.689,419 325.531,419 C 326.373,419 327.355,419.761 327.712,420.691 C 328.214,421.998 328.616,421.623 329.486,419.041 C 330.512,415.993 331.486,415.361 340.556,411.848 C 353.338,406.898 366.942,399.970 368.092,397.825 C 368.586,396.904 371.357,395.030 374.249,393.662 C 377.141,392.294 383.658,387.576 388.731,383.179 C 397.446,375.626 398.166,375.213 401.769,375.696 C 406.242,376.296 408.333,374.493 408.333,370.036 C 408.333,367.181 408.339,367.179 413.667,367.729 C 416.600,368.032 419,368.607 419,369.006 C 419,369.405 416.901,371.367 414.336,373.366 C 410.883,376.056 410.169,377.016 411.586,377.062 C 413.426,377.122 413.419,377.227 411.395,379.757 C 410.237,381.205 409.450,383.202 409.645,384.195 C 409.763,384.797 409.882,385.398 410,386 Z" fill="#6991C1" stroke="none" />
  <path id="12" d="M 339,328 C 366.296,314.075 379.458,308.857 398.500,304.413 C 407.651,302.277 412.879,301.753 429.609,301.291 C 442.783,300.927 449.936,301.087 450.349,301.755 C 451.380,303.423 448.003,320.824 444.772,330.500 C 438.889,348.115 426.723,368.874 415.615,380.250 C 413.743,382.167 411.872,384.083 410,386 C 409.882,385.398 409.763,384.797 409.645,384.195 C 409.450,383.202 410.237,381.205 411.395,379.757 C 413.419,377.227 413.426,377.122 411.586,377.062 C 410.169,377.016 410.883,376.056 414.336,373.366 C 416.901,371.367 419,369.405 419,369.006 C 419,368.607 416.600,368.032 413.667,367.729 C 408.339,367.179 408.333,367.181 408.333,370.036 C 408.333,374.493 406.242,376.296 401.769,375.696 C 398.166,375.213 397.446,375.626 388.731,383.179 C 383.658,387.576 377.141,392.294 374.249,393.662 C 371.357,395.030 368.586,396.904 368.092,397.825 C 366.942,399.970 353.338,406.898 340.556,411.848 C 331.486,415.361 330.512,415.993 329.486,419.041 C 328.616,421.623 328.214,421.998 327.712,420.691 C 327.355,419.761 326.373,419 325.531,419 C 324.689,419 324,418.520 324,417.933 C 324,417.335 323.154,417.133 322.075,417.476 C 316.831,419.140 300.122,419.679 291.529,418.460 C 277.058,416.408 266,412.743 266,410 C 280.337,413.924 288.628,415.585 293.674,416.224 C 328.006,420.570 371.538,399.723 403.769,363.500 C 414.754,351.155 426.373,332.698 430.470,321.085 C 431.786,317.354 431.751,317.056 429.939,316.481 C 427.664,315.759 411.493,317.541 401.556,319.609 C 385.319,322.988 362.145,331.857 345,341.254 C 336.751,345.775 315.519,358.555 312.750,360.666 C 312.167,361.111 311.583,361.555 311,362 C 310.987,361.750 310.973,361.500 310.960,361.250 C 310.877,359.695 318.173,353.469 320.924,352.748 C 322.501,352.335 325.202,350.679 326.926,349.069 C 331.025,345.240 348.647,335.540 362.500,329.488 C 368.550,326.845 374.222,324.068 375.105,323.317 C 375.988,322.566 377.450,322.236 378.355,322.583 C 379.675,323.090 380,322.567 380,319.936 C 380,318.133 379.285,315.867 378.411,314.902 C 376.679,312.988 377.837,312.687 364.002,318.651 C 362.076,319.481 355.888,322.375 340,330 C 339.667,329.333 339.333,328.667 339,328 Z" fill="#9F8ECA" stroke="none" />
  <path id="9" d="M 22,302 C 33.112,298.574 59.339,300.099 80.099,305.379 C 105.157,311.752 140.659,328.689 160.250,343.618 C 162.167,345.079 164.083,346.539 166,348 C 163.288,346.989 161.799,346.099 160.943,345.368 C 160.087,344.637 157.949,343.356 156.193,342.520 C 155.129,342.013 154.064,341.507 153,341 C 152.083,340.700 151.167,340.400 150.250,340.100 C 148.738,339.605 143.545,336.838 138.712,333.951 C 131.251,329.495 129.590,328.862 127.712,329.760 C 126.495,330.342 124.679,331.083 123.676,331.406 C 119.968,332.601 122.608,335.511 132.010,340.591 C 137.229,343.411 142.512,346.682 146,350 C 147,351.333 148,352.667 149,354 C 104.743,328.510 79.960,319.192 51.443,317.319 C 39.959,316.565 39.978,316.518 46.374,329.573 C 60.483,358.369 83.930,382.738 115.335,401.250 C 116.890,402.167 118.445,403.083 120,404 C 119,404 118,404 117,404 C 115.583,403.131 114.167,402.263 112.750,401.394 C 105.143,396.729 100.786,394.822 98.875,395.322 C 97.715,395.625 97,395.290 97,394.442 C 97,393.688 96.160,392.621 95.134,392.072 C 94.108,391.523 89.945,388.357 85.884,385.038 C 81.792,381.693 77.510,379.002 76.281,379.001 C 74.775,379 74.238,378.544 74.608,377.580 C 75.055,376.415 73.530,376.169 66.126,376.216 C 63.117,376.235 60.107,376.254 57.098,376.273 C 58.332,377.717 59.565,379.160 60.799,380.604 C 62.834,382.986 65.062,384.949 65.750,384.967 C 66.438,384.985 67,385.614 67,386.364 C 67,387.114 72.062,391.871 78.250,396.933 C 84.438,401.995 89.950,406.565 90.500,407.086 C 93.192,409.638 106.232,418.077 112,421 C 112,421.333 112,421.667 112,422 C 92.332,413.103 76.703,401.838 60.744,385.052 C 39.935,363.166 25.748,335.391 23.036,311.231 C 22.691,308.154 22.345,305.077 22,302 Z" fill="#6EDCD7" stroke="none" />
  <path id="2" d="M 120,404 C 148.770,417.288 168.486,419.890 193.012,413.637 C 201.880,411.376 221.060,403.461 220.951,402.108 C 220.924,401.774 210.124,394.413 196.951,385.750 C 188.967,380.500 180.984,375.250 173,370 C 172.173,369.812 171.347,369.623 170.520,369.435 C 169.156,369.125 166.680,367.325 162,362 C 157.667,359.333 153.333,356.667 149,354 C 148,352.667 147,351.333 146,350 C 146.001,349.750 146.003,349.500 146.004,349.250 C 146.008,348.350 162.882,359.008 168.134,363.228 C 170.177,364.870 172.332,365.913 172.924,365.547 C 173.516,365.181 174,362.927 174,360.537 C 174,359.089 174,357.640 174,356.192 C 170.583,353.946 167.167,351.699 163.750,349.453 C 158.113,345.747 153.387,342.329 153,341 C 154.064,341.507 155.129,342.013 156.193,342.520 C 157.949,343.356 160.087,344.637 160.943,345.368 C 161.799,346.099 163.288,346.989 166,348 C 217.538,381.971 233.466,392.311 234.646,392.896 C 236.526,393.827 239.808,391.944 261.097,377.729 C 269.199,372.319 277.301,366.910 285.403,361.500 C 283.169,359.583 280.935,357.667 278.701,355.750 C 276.467,353.833 274.234,351.917 272,350 C 272.250,349.975 272.500,349.951 272.750,349.926 C 273.163,349.886 276.338,351.911 279.808,354.426 C 283.278,356.941 286.694,359 287.400,359 C 288.106,359 289.654,357.875 293,354 C 295.317,354 302.405,349.875 310.245,344.833 C 318.085,339.791 327.763,333.941 331.750,331.833 C 334.167,330.555 336.583,329.278 339,328 C 339.333,328.667 339.667,329.333 340,330 C 339.255,330.417 338.509,330.833 337.764,331.250 C 332.108,334.412 319.547,342.272 309.683,348.820 C 303.734,352.769 298.381,356 297.788,356 C 297.195,356 295.763,356.936 294.605,358.080 C 293.447,359.224 290.925,361.225 289,362.527 C 287.075,363.829 277.625,370.233 268,376.759 C 241.778,394.537 238.586,396.367 235.044,395.659 C 233.395,395.329 230.181,393.824 227.900,392.315 C 226.518,391.400 225.136,390.486 223.754,389.571 C 222.915,390.559 222.077,391.548 221.238,392.536 C 220.399,393.524 219.561,394.512 218.722,395.500 C 219.602,396.318 220.481,397.135 221.361,397.953 C 226.235,402.484 224.854,404.199 211.517,410.184 C 209.523,411.079 207.529,411.974 205.535,412.869 C 206.529,413.882 207.524,414.894 208.518,415.907 C 210.158,417.578 212.228,418.957 213.117,418.972 C 214.006,418.987 218.956,416.758 224.117,414.019 C 229.278,411.280 234.607,409.030 235.961,409.019 C 237.315,409.008 244.200,411.951 251.262,415.558 C 263.277,421.695 282.712,429 287.026,429 C 288.267,429 288.773,429.526 288,432 C 271.730,427.857 263.859,424.924 248.814,417.397 C 244.585,415.281 240.356,413.166 236.127,411.050 C 231.689,413.297 227.252,415.545 222.814,417.792 C 208.783,424.898 194.778,429.927 181.535,432.617 C 175.454,433.852 170.131,434.114 159.035,433.721 C 143.171,433.160 133.225,430.997 119.250,425.073 C 116.833,424.049 114.417,423.024 112,422 C 112,421.667 112,421.333 112,421 C 112.583,420.972 113.167,420.944 113.750,420.916 C 114.713,420.870 119.550,422.430 124.500,424.383 C 129.450,426.336 134.297,427.949 135.271,427.967 C 137.993,428.018 139.450,423.775 138.398,418.853 C 137.506,414.677 137.438,414.623 127.500,410.324 C 122,407.945 117.387,405.549 117,404 C 118,404 119,404 120,404 Z" fill="#6898C5" stroke="none" />
  <path id="15" d="M 293,201 C 279.861,220.203 274.445,228.466 272.489,231.750 C 266.855,241.207 262.186,253.290 259.902,264.316 C 253.703,294.248 264.309,327.327 286.815,348.250 C 288.877,350.167 290.938,352.083 293,354 C 289.654,357.875 288.106,359 287.400,359 C 286.694,359 283.278,356.941 279.808,354.426 C 276.338,351.911 273.163,349.886 272.750,349.926 C 272.500,349.951 272.250,349.975 272,350 C 262.539,339.538 257.828,333.158 255.427,329.073 C 243.567,308.897 239.410,284.432 243.903,261.255 C 247.376,243.337 254.968,227.628 268.551,210.250 C 270.701,207.500 272.850,204.750 275,202 C 275.250,202.029 275.500,202.058 275.750,202.087 C 276.163,202.135 278.075,200.913 280,199.373 C 284.450,195.812 283.245,197.713 274.442,208.140 C 270.560,212.738 265.845,218.750 263.964,221.500 C 262.824,223.167 261.685,224.833 260.545,226.500 C 261.454,226.605 262.364,226.711 263.273,226.816 C 264.773,226.990 266.482,228.032 267.070,229.131 C 268.544,231.886 271.223,229.736 270.400,226.458 C 269.936,224.608 270.424,223.832 272.834,222.586 C 275.457,221.230 287.961,205.239 292.123,197.921 C 292.582,197.114 293.041,196.307 293.500,195.500 C 293.333,197.333 293.167,199.167 293,201 Z" fill="#1C799D" stroke="none" />
  <path id="15" d="M 218,234 C 227.889,256.285 228.503,258.978 228.485,280 C 228.467,300.566 227.055,307.071 219.041,323.500 C 213.919,333.999 203.456,347.992 196.664,353.422 C 195.385,354.444 194.106,355.468 192.827,356.490 C 191.281,355.466 189.736,354.442 188.190,353.418 C 186.644,352.394 185.099,351.371 183.553,350.347 C 185.704,347.973 187.856,345.600 190.007,343.226 C 197.813,334.614 202.968,326.300 207.026,315.777 C 212.058,302.727 213.300,294.555 212.761,278.035 C 212.339,265.091 211.939,262.460 209.109,254 C 207.361,248.775 204.372,241.462 202.466,237.750 C 201.311,235.500 200.155,233.250 199,231 C 196.856,222.509 197.284,222.768 202.578,233.172 C 205.938,239.775 207.950,242.699 208.917,242.389 C 209.941,242.060 210.333,242.832 210.333,245.174 C 210.333,246.956 210.872,249.451 211.529,250.718 C 212.186,251.985 212.990,255.267 213.315,258.011 C 213.640,260.755 214.377,263 214.953,263 C 215.529,263 216,262.231 216,261.292 C 216,260.353 217.612,257.935 219.581,255.918 C 220.775,254.696 221.967,253.473 223.161,252.251 C 222.208,249.960 221.256,247.669 220.303,245.378 C 218.143,240.182 216.965,238.504 215.479,238.502 C 213.809,238.500 213.562,237.922 213.840,234.671 C 214.152,231.025 214.258,230.917 216.083,232.421 C 216.722,232.947 217.361,233.474 218,234 Z" fill="#1C799D" stroke="none" />
  <path id="21" d="M 208.877,141 C 211.689,132.443 216.432,126.759 223.878,123.025 C 245.406,112.228 269.254,133.290 261.446,156.205 C 257.895,166.626 247.550,174 236.482,174 C 233.113,174 228.268,173.288 225.715,172.418 C 219.991,170.468 213.457,164.288 210.822,158.331 C 208.594,153.294 207.638,144.772 208.877,141 ZM 250.750,161.612 C 248.962,161.921 246.933,162.346 246.241,162.558 C 245.549,162.770 243.759,162.479 242.263,161.910 C 238.386,160.436 230.382,160.438 228.604,161.913 C 226.842,163.375 223.765,162.629 219.673,159.746 C 217.476,158.198 216.584,158.022 215.673,158.957 C 213.685,160.997 223.765,169.504 229.919,170.980 C 235.001,172.199 241.687,171.678 245.500,169.764 C 247.965,168.527 254,162.893 254,161.829 C 254,161.401 252.538,161.303 250.750,161.612 ZM 250.112,127.602 C 246.608,124.431 238.040,121.818 233.582,122.561 C 228.734,123.369 221.204,127.005 218.748,129.723 C 217.052,131.600 217.112,131.699 220.650,132.785 C 223.197,133.567 224.891,133.594 226.236,132.874 C 227.690,132.096 228.597,132.230 229.912,133.420 C 231.799,135.128 241.467,135.671 242.424,134.123 C 242.722,133.641 244.999,132.735 247.483,132.109 C 252.478,130.851 252.901,130.126 250.112,127.602 Z" fill="#4FB0B5" stroke="none" />
  <path id="11" d="M 167,154 C 168.459,152.146 169.385,154.402 170.456,159.119 C 173.639,173.137 179.598,182.690 200.944,208 C 205.351,213.225 210.991,221.212 213.478,225.750 C 214.985,228.500 216.493,231.250 218,234 C 217.361,233.474 216.722,232.947 216.083,232.421 C 214.258,230.917 214.152,231.025 213.840,234.671 C 213.562,237.922 213.809,238.500 215.479,238.502 C 216.965,238.504 218.143,240.182 220.303,245.378 C 221.256,247.669 222.208,249.960 223.161,252.251 C 221.967,253.473 220.775,254.696 219.581,255.918 C 217.612,257.935 216,260.353 216,261.292 C 216,262.231 215.529,263 214.953,263 C 214.377,263 213.640,260.755 213.315,258.011 C 212.990,255.267 212.186,251.985 211.529,250.718 C 210.872,249.451 210.333,246.956 210.333,245.174 C 210.333,242.832 209.941,242.060 208.917,242.389 C 207.950,242.699 205.938,239.775 202.578,233.172 C 197.284,222.768 196.856,222.509 199,231 C 192.308,221.312 187.683,214.884 184.405,210.464 C 177.099,200.612 170.559,188.247 168.525,180.436 C 167.636,177.023 167,170.286 167,164.290 C 167,160.860 167,157.430 167,154 Z" fill="#389CAB" stroke="none" />
  <path id="16" d="M 117,404 C 117.387,405.549 122,407.945 127.500,410.324 C 137.438,414.623 137.506,414.677 138.398,418.853 C 139.450,423.775 137.993,428.018 135.271,427.967 C 134.297,427.949 129.450,426.336 124.500,424.383 C 119.550,422.430 114.713,420.870 113.750,420.916 C 113.167,420.944 112.583,420.972 112,421 C 106.232,418.077 93.192,409.638 90.500,407.086 C 89.950,406.565 84.438,401.995 78.250,396.933 C 72.062,391.871 67,387.114 67,386.364 C 67,385.614 66.438,384.985 65.750,384.967 C 65.062,384.949 62.834,382.986 60.799,380.604 C 59.565,379.160 58.332,377.717 57.098,376.273 C 60.107,376.254 63.117,376.235 66.126,376.216 C 73.530,376.169 75.055,376.415 74.608,377.580 C 74.238,378.544 74.775,379 76.281,379.001 C 77.510,379.002 81.792,381.693 85.884,385.038 C 89.945,388.357 94.108,391.523 95.134,392.072 C 96.160,392.621 97,393.688 97,394.442 C 97,395.290 97.715,395.625 98.875,395.322 C 100.786,394.822 105.143,396.729 112.750,401.394 C 114.167,402.263 115.583,403.131 117,404 Z" fill="#00ABC3" stroke="none" />
  <path id="10" d="M 75,275 C 72.479,273.591 69.052,266.113 63.993,250.979 C 58.064,233.243 56.561,222.941 56.628,200.500 C 56.677,183.988 57.028,179.856 59.309,168.942 C 73.141,102.765 120.387,51.033 183.892,32.528 C 187.928,31.352 191.964,30.176 196,29 C 194.417,29.876 192.833,30.753 191.250,31.629 C 188.637,33.075 182.900,35.495 178.500,37.006 C 166.824,41.015 159.061,44.676 158.359,46.506 C 157.988,47.474 158.603,48.913 159.907,50.128 C 160.628,50.800 161.350,51.472 162.071,52.144 C 166.055,50.620 170.040,49.096 174.024,47.572 C 181.835,44.584 187.540,43 195,43 C 156.904,56.073 135.890,68.612 114.878,90.810 C 93.551,113.340 79.750,138.470 72.210,168.500 C 64.339,199.849 65.424,230.464 75.595,264 C 77.013,268.675 78.133,272.837 78.086,273.250 C 78.057,273.500 78.029,273.750 78,274 C 77.677,273.333 77.355,272.667 77.032,272 C 75.093,267.992 73.770,269.945 75,275 Z" fill="#7ADFD8" stroke="none" />
  <path id="21" d="M 275,202 C 289.730,185.054 297.703,171.916 300.362,160.206 C 301.192,156.550 302.169,154.500 303.079,154.500 C 304.231,154.500 304.490,156.772 304.448,166.500 C 304.403,176.952 304.047,179.468 301.689,186 C 300.200,190.125 297.636,195.188 295.991,197.250 C 294.994,198.500 293.997,199.750 293,201 C 293.167,199.167 293.333,197.333 293.500,195.500 C 293.041,196.307 292.582,197.114 292.123,197.921 C 287.961,205.239 275.457,221.230 272.834,222.586 C 270.424,223.832 269.936,224.608 270.400,226.458 C 271.223,229.736 268.544,231.886 267.070,229.131 C 266.482,228.032 264.773,226.990 263.273,226.816 C 262.364,226.711 261.454,226.605 260.545,226.500 C 261.685,224.833 262.824,223.167 263.964,221.500 C 265.845,218.750 270.560,212.738 274.442,208.140 C 283.245,197.713 284.450,195.812 280,199.373 C 278.075,200.913 276.163,202.135 275.750,202.087 C 275.500,202.058 275.250,202.029 275,202 Z" fill="#4FB0B5" stroke="none" />
  <path id="21" d="M 153,341 C 153.387,342.329 158.113,345.747 163.750,349.453 C 167.167,351.699 170.583,353.946 174,356.192 C 174,357.640 174,359.089 174,360.537 C 174,362.927 173.516,365.181 172.924,365.547 C 172.332,365.913 170.177,364.870 168.134,363.228 C 162.882,359.008 146.008,348.350 146.004,349.250 C 146.003,349.500 146.001,349.750 146,350 C 142.512,346.682 137.229,343.411 132.010,340.591 C 122.608,335.511 119.968,332.601 123.676,331.406 C 124.679,331.083 126.495,330.342 127.712,329.760 C 129.590,328.862 131.251,329.495 138.712,333.951 C 143.545,336.838 148.738,339.605 150.250,340.100 C 151.167,340.400 152.083,340.700 153,341 Z" fill="#4FB0B5" stroke="none" />
  <path id="14" d="M 250.112,127.602 C 252.901,130.126 252.478,130.851 247.483,132.109 C 244.999,132.735 242.722,133.641 242.424,134.123 C 241.467,135.671 231.799,135.128 229.912,133.420 C 228.597,132.230 227.690,132.096 226.236,132.874 C 224.891,133.594 223.197,133.567 220.650,132.785 C 217.112,131.699 217.052,131.600 218.748,129.723 C 221.204,127.005 228.734,123.369 233.582,122.561 C 238.040,121.818 246.608,124.431 250.112,127.602 Z" fill="#54B9B9" stroke="none" />
  <path id="11" d="M 250.750,161.612 C 252.538,161.303 254,161.401 254,161.829 C 254,162.893 247.965,168.527 245.500,169.764 C 241.687,171.678 235.001,172.199 229.919,170.980 C 223.765,169.504 213.685,160.997 215.673,158.957 C 216.584,158.022 217.476,158.198 219.673,159.746 C 223.765,162.629 226.842,163.375 228.604,161.913 C 230.382,160.438 238.386,160.436 242.263,161.910 C 243.759,162.479 245.549,162.770 246.241,162.558 C 246.933,162.346 248.962,161.921 250.750,161.612 Z" fill="#389CAB" stroke="none" />
  <path id="8" d="M 310,364 C 323.365,369.099 334.285,371.986 340.315,372.015 C 342.067,372.023 344.175,372.495 345,373.063 C 347.481,374.770 314.701,373.536 306.750,371.624 C 304.500,371.083 302.250,370.541 300,370 C 300.720,369.148 301.440,368.295 302.160,367.443 C 303.348,366.037 305.598,364.687 310,364 Z" fill="#3579A6" stroke="none" />
  <path id="4" d="M 173,370 C 157.996,373.389 151.673,374 143.446,374 C 130.612,374 129.553,373.017 140.345,371.119 C 148.347,369.712 160.171,365.326 161.250,363.364 C 161.500,362.909 161.750,362.455 162,362 C 166.680,367.325 169.156,369.125 170.520,369.435 C 171.347,369.623 172.173,369.812 173,370 Z" fill="#7EBDD2" stroke="none" />
  <path id="17" d="M 78,274 C 79.027,276.712 80.152,278.694 81.163,280.154 C 83.376,283.351 83.541,286 81.529,286 C 80.720,286 78.921,283.527 77.529,280.500 C 76.686,278.667 75.843,276.833 75,275 C 73.770,269.945 75.093,267.992 77.032,272 C 77.355,272.667 77.677,273.333 78,274 Z" fill="#E7F7F7" stroke="none" />
</svg>